<?xml version="1.0" encoding="UTF-8"?>
<!-- Created with Inkscape (http://www.inkscape.org/) -->
<svg width="1080.5" height="959.7" version="1.1" viewBox="0 0 285.88 253.92" xml:space="preserve" xmlns="http://www.w3.org/2000/svg"><g transform="translate(-347.27 -56.565)"><g stroke-linecap="round" stroke-linejoin="round"><path d="m363.45 56.612h253.52c8.9378 0 16.133 7.1954 16.133 16.133v221.56c0 8.9378-7.1954 16.133-16.133 16.133h-253.52c-8.9378 0-16.133-7.1954-16.133-16.133v-221.56c0-8.9378 7.1954-16.133 16.133-16.133z" fill="#0b0414" stroke="#261831" stroke-width=".093519"/><g transform="matrix(1.3139 0 0 1.3139 333.72 -21.063)"><path d="m54.986 106.01a13.718 13.718 0 0 1-13.718 13.718 13.718 13.718 0 0 1-13.718-13.718 13.718 13.718 0 0 1 13.718-13.718 13.718 13.718 0 0 1 13.718 13.718z" fill="#f60" stroke="#261831" stroke-width=".060875"/><path d="m73.045 116.02h1.8133l0.76211-5.4136h3.6792l-0.76211 5.4136h1.8133l0.76211-5.4136h3.3901v-1.7345h-3.1536l0.57815-4.0996h3.1536v-1.7345h-2.917l0.76211-5.4136h-1.8133l-0.76211 5.4136h-3.6792l0.76211-5.4136h-1.8133l-0.76211 5.4136h-3.3901v1.7345h3.1536l-0.57815 4.0996h-3.1536v1.7345h2.917zm2.8119-7.1481 0.57815-4.0996h3.6792l-0.57815 4.0996zm12.641 7.1481h2.1287v-8.2781h7.5686v-1.8921h-7.5686v-6.3334h8.7774v-1.8921h-10.906zm16.714 0h2.1286v-8.2781h7.5686v-1.8921h-7.5686v-6.3334h8.7774v-1.8921h-10.906zm31.614-8.8563v-0.0526c0-4.888 1.787-7.8839 4.7041-7.8839 1.7345 0 3.1273 1.0512 3.5215 2.7594h1.9184c-0.2628-2.7068-2.4966-4.6252-5.4399-4.6252-4.1522 0-6.7539 3.8631-6.7539 9.6972 0 5.7027 2.5228 9.2242 6.5699 9.2242 3.4426 0 5.9918-2.5228 5.9918-6.0706 0-3.4164-2.3652-5.8867-5.5976-5.8867-2.1287 0-3.8631 1.0775-4.7829 2.8908h-0.13139v-0.0526zm0.68327 3.2061c0-2.3915 1.7345-4.231 3.9945-4.231 2.1812 0 3.7843 1.7345 3.7843 4.0996 0 2.4177-1.6556 4.1785-3.8894 4.1785-2.2338 0-3.8894-1.7345-3.8894-4.0471zm15.085-3.2061v-0.0526c0-4.888 1.787-7.8839 4.7041-7.8839 1.7345 0 3.1273 1.0512 3.5215 2.7594h1.9184c-0.2628-2.7068-2.4966-4.6252-5.4399-4.6252-4.1522 0-6.7539 3.8631-6.7539 9.6972 0 5.7027 2.5228 9.2242 6.5699 9.2242 3.4426 0 5.9918-2.5228 5.9918-6.0706 0-3.4164-2.3652-5.8867-5.5976-5.8867-2.1287 0-3.8631 1.0775-4.7829 2.8908h-0.13139v-0.0526zm0.68327 3.2061c0-2.3915 1.7345-4.231 3.9945-4.231 2.1812 0 3.7843 1.7345 3.7843 4.0996 0 2.4177-1.6556 4.1785-3.8894 4.1785-2.2338 0-3.8894-1.7345-3.8894-4.0471zm35.083 5.9129c3.8894 0 6.202-3.5215 6.202-9.4607 0-5.9392-2.3126-9.4607-6.202-9.4607-3.8894 0-6.202 3.5215-6.202 9.4607 0 5.9392 2.3126 9.4607 6.202 9.4607zm-3.8894-6.2808c-0.18396-0.91979-0.2628-1.9973-0.2628-3.1798 0-4.8618 1.498-7.5948 4.1522-7.5948 1.5505 0 2.7331 0.94607 3.4164 2.6805zm3.8894 4.415c-1.5505 0-2.7068-0.94607-3.4164-2.6805l7.3058-8.0942c0.18396 0.91979 0.2628 1.971 0.2628 3.1798 0 4.8617-1.4979 7.5948-4.1522 7.5948zm15.768 1.8659c3.8894 0 6.202-3.5215 6.202-9.4607 0-5.9392-2.3126-9.4607-6.202-9.4607-3.8894 0-6.202 3.5215-6.202 9.4607 0 5.9392 2.3126 9.4607 6.202 9.4607zm-3.8894-6.2808c-0.18396-0.91979-0.2628-1.9973-0.2628-3.1798 0-4.8618 1.498-7.5948 4.1522-7.5948 1.5505 0 2.7331 0.94607 3.4164 2.6805zm3.8894 4.415c-1.5505 0-2.7068-0.94607-3.4164-2.6805l7.3058-8.0942c0.18396 0.91979 0.2628 1.971 0.2628 3.1798 0 4.8617-1.4979 7.5948-4.1522 7.5948z" fill="#f60" stroke="#261831" stroke-width=".49274" aria-label="#FF 66 00"/><path d="m54.986 158.86a13.718 13.718 0 0 1-13.718 13.718 13.718 13.718 0 0 1-13.718-13.718 13.718 13.718 0 0 1 13.718-13.718 13.718 13.718 0 0 1 13.718 13.718z" fill="#0b0414" stroke="#f60" stroke-width="1.3229"/><g stroke="#261831"><path d="m73.045 168.87h1.8133l0.76211-5.4136h3.6792l-0.76211 5.4136h1.8133l0.76211-5.4136h3.3901v-1.7345h-3.1536l0.57815-4.0996h3.1536v-1.7345h-2.917l0.76211-5.4136h-1.8133l-0.76211 5.4136h-3.6792l0.76211-5.4136h-1.8133l-0.76211 5.4136h-3.3901v1.7345h3.1536l-0.57815 4.0996h-3.1536v1.7345h2.917zm2.8119-7.1481 0.57815-4.0996h3.6792l-0.57815 4.0996zm17.896 7.4109c3.8894 0 6.202-3.5215 6.202-9.4607s-2.3126-9.4607-6.202-9.4607c-3.8894 0-6.202 3.5215-6.202 9.4607s2.3126 9.4607 6.202 9.4607zm-3.8894-6.2808c-0.18396-0.91979-0.2628-1.9972-0.2628-3.1798 0-4.8617 1.4979-7.5948 4.1522-7.5948 1.5505 0 2.7331 0.94607 3.4164 2.6805zm3.8894 4.415c-1.5505 0-2.7068-0.94607-3.4164-2.6805l7.3058-8.0941c0.18396 0.91979 0.2628 1.971 0.2628 3.1798 0 4.8617-1.4979 7.5948-4.1522 7.5948zm10.275 1.6031h6.5436c3.0484 0 5.2559-2.1286 5.2559-5.0457 0-2.1812-1.1826-3.8631-3.0747-4.5201v-0.10511c1.5242-0.73584 2.4966-2.2075 2.4966-4.0471 0-2.7068-2.1024-4.6778-5.0457-4.6778h-6.1757zm2.1287-10.486v-6.018h4.1785c1.7082 0 2.8119 1.1826 2.8119 2.9433 0 1.787-1.1563 3.0747-2.8119 3.0747zm0 8.5935v-6.7013h4.4938c1.8133 0 3.0484 1.3666 3.0484 3.3638 0 1.971-1.2352 3.3375-3.0484 3.3375zm34.899 2.1549c3.8894 0 6.202-3.5215 6.202-9.4607s-2.3126-9.4607-6.202-9.4607c-3.8894 0-6.202 3.5215-6.202 9.4607s2.3126 9.4607 6.202 9.4607zm-3.8894-6.2808c-0.18396-0.91979-0.2628-1.9972-0.2628-3.1798 0-4.8617 1.498-7.5948 4.1522-7.5948 1.5505 0 2.7331 0.94607 3.4164 2.6805zm3.8894 4.415c-1.5505 0-2.7068-0.94607-3.4164-2.6805l7.3058-8.0941c0.18396 0.91979 0.2628 1.971 0.2628 3.1798 0 4.8617-1.4979 7.5948-4.1522 7.5948zm8.9351-2.8119h8.4358v4.415h2.0498v-4.415h3.3112v-1.8921h-3.3112v-12.089h-2.9433l-7.5423 11.931zm8.3307-12.089h0.10512v10.197h-6.4911zm24.493 16.504h11.616v-1.8658h-4.6778v-16.53h-1.9447l-4.9931 3.2587v2.1024l4.8092-3.1273v14.296h-4.8092zm14.48-4.415h8.4358v4.415h2.0498v-4.415h3.3112v-1.8921h-3.3112v-12.089h-2.9433l-7.5423 11.931zm8.3307-12.089h0.10512v10.197h-6.4911z" fill="#f60" stroke-width=".49274" aria-label="#0B 04 14"/><path d="m54.986 205.43a13.718 13.718 0 0 1-13.718 13.718 13.718 13.718 0 0 1-13.718-13.718 13.718 13.718 0 0 1 13.718-13.718 13.718 13.718 0 0 1 13.718 13.718z" fill="#fff" stroke-width=".060875"/><path d="m73.045 215.44h1.8133l0.76211-5.4136h3.6792l-0.76211 5.4136h1.8133l0.76211-5.4136h3.3901v-1.7345h-3.1536l0.57815-4.0996h3.1536v-1.7345h-2.917l0.76211-5.4136h-1.8133l-0.76211 5.4136h-3.6792l0.76211-5.4136h-1.8133l-0.76211 5.4136h-3.3901v1.7345h3.1536l-0.57815 4.0996h-3.1536v1.7345h2.917zm2.8119-7.1481 0.57815-4.0996h3.6792l-0.57815 4.0996zm12.641 7.1481h2.1287v-8.2781h7.5686v-1.8921h-7.5686v-6.3334h8.7774v-1.8921h-10.906zm16.714 0h2.1286v-8.2781h7.5686v-1.8921h-7.5686v-6.3334h8.7774v-1.8921h-10.906zm30.59 0h2.1286v-8.2781h7.5686v-1.8921h-7.5686v-6.3334h8.7774v-1.8921h-10.906zm16.714 0h2.1286v-8.2781h7.5686v-1.8921h-7.5686v-6.3334h8.7774v-1.8921h-10.906zm30.59 0h2.1286v-8.2781h7.5686v-1.8921h-7.5686v-6.3334h8.7774v-1.8921h-10.906zm16.714 0h2.1286v-8.2781h7.5686v-1.8921h-7.5686v-6.3334h8.7774v-1.8921h-10.906z" fill="#f60" stroke-width=".49274" aria-label="#FF FF FF"/></g></g></g></g></svg>
