<?xml version="1.0" encoding="UTF-8" standalone="no"?>
<!-- Uploaded to: SVG Repo, www.svgrepo.com, Generator: SVG Repo Mixer Tools -->

<svg
   height="456.11133"
   width="261.67773"
   version="1.1"
   id="Layer_1"
   viewBox="0 0 167.47375 291.91125"
   xml:space="preserve"
   sodipodi:docname="spy-icognito-svgrepo-com.svg"
   inkscape:version="1.4.3 (0d15f75042, 2025-12-25)"
   xmlns:inkscape="http://www.inkscape.org/namespaces/inkscape"
   xmlns:sodipodi="http://sodipodi.sourceforge.net/DTD/sodipodi-0.dtd"
   xmlns:xlink="http://www.w3.org/1999/xlink"
   xmlns="http://www.w3.org/2000/svg"
   xmlns:svg="http://www.w3.org/2000/svg"><defs
   id="defs14"><linearGradient
   id="linearGradient19"><stop
     stop-color="#5c0dfe"
     offset="0"
     id="stop18"
     style="stop-color:#14001a;stop-opacity:1;" /><stop
     stop-color="#a324ff"
     offset="1"
     id="stop19" /></linearGradient><linearGradient
   id="linearGradient106"><stop
     stop-color="#5c0dfe"
     offset="0"
     id="stop1" /><stop
     stop-color="#a324ff"
     offset="1"
     id="stop2" /></linearGradient><clipPath
   id="clipPath674-3"><path
     d="m 5487.9,1014 c -126.1,0 -230.14,102.24 -231.89,228.72 l -1.67,120.47 c -3.13,226.95 179.97,415.2 406.92,418.33 l 180.7,2.51 c 1.91,0.03 3.84,0.04 5.74,0.04 224.38,0 409.48,-181.92 412.6,-406.95 l 1.67,-120.47 c 1.77,-128.09 -100.63,-233.35 -228.7,-235.13 l -542.13,-7.5 c -1.08,-0.01 -2.17,-0.02 -3.24,-0.02 m 306.33,550.39 c -7.57,0 -15.2,-0.03 -22.86,-0.09 -57.66,-0.46 -112.94,-2.65 -165.57,-6.12 -124.42,-8.2 -224.79,-95.82 -238.71,-208.17 l -0.3,-2.41 c -4.1,-33.18 14.59,-65.2 47.14,-80.73 12.85,-6.13 27.16,-9.33 41.7,-9.33 0.45,0 0.91,0 1.36,0.01 l 603.67,8.36 c 15,0.21 29.71,3.83 42.77,10.51 32.11,16.43 49.91,48.95 44.88,82 l -0.36,2.42 c -17.08,112.34 -120.58,196.79 -245.65,201.51 -34.94,1.32 -70.98,2.04 -108.07,2.04"
     id="path2-3" /></clipPath><clipPath
   id="clipPath676-7"><path
     d="m 5455.6,1257.5 c -14.54,0 -28.85,3.2 -41.7,9.33 -32.55,15.53 -51.24,47.55 -47.14,80.73 l 0.3,2.41 c 13.92,112.35 114.29,199.97 238.71,208.17 52.63,3.47 107.91,5.66 165.57,6.12 7.66,0.06 15.29,0.09 22.86,0.09 37.09,0 73.13,-0.72 108.07,-2.04 125.07,-4.72 228.57,-89.17 245.65,-201.51 l 0.36,-2.42 c 5.03,-33.05 -12.77,-65.57 -44.88,-82 -13.06,-6.68 -27.77,-10.3 -42.77,-10.51 l -603.67,-8.36 c -0.45,-0.01 -0.91,-0.01 -1.36,-0.01 m 491.87,252.71 c -0.54,0 -1.08,0 -1.63,-0.01 -62.86,-0.87 -113.12,-52.54 -112.25,-115.4 0.87,-62.34 51.67,-112.26 113.8,-112.26 0.54,0 1.08,0 1.61,0.01 62.87,0.86 113.12,52.54 112.25,115.41 -0.86,62.32 -51.64,112.25 -113.78,112.25 m -349.67,1.66 c -0.53,0 -1.07,0 -1.6,-0.01 -62.88,-0.87 -113.13,-52.54 -112.26,-115.41 0.86,-62.33 51.66,-112.27 113.81,-112.27 0.53,0 1.07,0.01 1.6,0.02 62.86,0.88 113.13,52.53 112.25,115.41 -0.87,62.33 -51.66,112.26 -113.8,112.26"
     id="path3-6" /></clipPath><clipPath
   id="clipPath680-3"><path
     d="m 5666.4,1399 c 0.53,-37.9 -29.76,-69.05 -67.66,-69.57 -37.92,-0.53 -69.06,29.77 -69.58,67.67 -0.53,37.9 29.77,69.05 67.67,69.58 37.9,0.52 69.05,-29.78 69.57,-67.68 z"
     id="path4-7" /></clipPath><clipPath
   id="clipPath687-6"><path
     d="m 6016.1,1397.3 c 0.53,-37.9 -29.78,-69.04 -67.68,-69.57 -37.9,-0.53 -69.05,29.78 -69.58,67.68 -0.51,37.9 29.78,69.05 67.68,69.57 37.91,0.52 69.05,-29.77 69.58,-67.68 z"
     id="path5-5" /></clipPath><linearGradient
   id="linearGradient97"
   x1="694.65997"
   x2="707.98999"
   y1="572.34998"
   y2="572.34998"
   gradientTransform="matrix(2.848386,0,0,2.848386,-1389.851,-1306.9768)"
   gradientUnits="userSpaceOnUse"><stop
     stop-color="#5c0dfe"
     offset="0"
     id="stop5" /><stop
     stop-color="#5c0dfe"
     stop-opacity="0"
     offset="1"
     id="stop6" /></linearGradient><linearGradient
   id="linearGradient105"
   x1="5254.2998"
   x2="6262"
   y1="1399.1"
   y2="1399.1"
   gradientUnits="userSpaceOnUse"
   xlink:href="#linearGradient106" /><linearGradient
   id="linearGradient127"
   x1="3009"
   x2="3258.5"
   y1="2250"
   y2="2250"
   gradientUnits="userSpaceOnUse"><stop
     stop-color="#a224ff"
     stop-opacity=".17283"
     offset="0"
     id="stop7" /><stop
     stop-color="#a224ff"
     offset="1"
     id="stop8" /></linearGradient><linearGradient
   id="linearGradient136"
   x1="1285.2"
   x2="1693.3"
   y1="2243.3"
   y2="2243.3"
   gradientTransform="matrix(0.18864709,0,0,-0.18864709,-781.05248,750.59185)"
   gradientUnits="userSpaceOnUse"
   xlink:href="#linearGradient106" /><linearGradient
   id="linearGradient137"
   x1="782.08002"
   x2="803.87"
   y1="572.21997"
   y2="572.21997"
   gradientUnits="userSpaceOnUse"
   xlink:href="#linearGradient106" /><linearGradient
   id="linearGradient139"
   x1="746.40997"
   x2="753.19"
   y1="571.96002"
   y2="571.96002"
   gradientUnits="userSpaceOnUse"
   xlink:href="#linearGradient106" /><linearGradient
   id="linearGradient140"
   x1="739.54999"
   x2="740.90002"
   y1="576.27002"
   y2="576.27002"
   gradientUnits="userSpaceOnUse"
   xlink:href="#linearGradient106" /><linearGradient
   id="linearGradient141"
   x1="742.94"
   x2="745.65002"
   y1="579.04999"
   y2="579.04999"
   gradientUnits="userSpaceOnUse"
   xlink:href="#linearGradient106" /><linearGradient
   id="linearGradient142"
   x1="793.03998"
   x2="799.82001"
   y1="572.16998"
   y2="572.16998"
   gradientUnits="userSpaceOnUse"
   xlink:href="#linearGradient106" /><linearGradient
   id="linearGradient143"
   x1="789.56"
   x2="792.26001"
   y1="579.26001"
   y2="579.26001"
   gradientUnits="userSpaceOnUse"
   xlink:href="#linearGradient106" /><linearGradient
   id="linearGradient144"
   x1="786.17999"
   x2="787.53003"
   y1="576.48999"
   y2="576.48999"
   gradientUnits="userSpaceOnUse"
   xlink:href="#linearGradient106" /><linearGradient
   id="linearGradient127-7"
   x1="3009"
   x2="3258.5"
   y1="2250"
   y2="2250"
   gradientUnits="userSpaceOnUse"
   gradientTransform="matrix(0.15210862,0,0,0.15210862,509.51411,-18.958286)"><stop
     stop-color="#a224ff"
     stop-opacity=".17283"
     offset="0"
     id="stop7-0" /><stop
     stop-color="#a224ff"
     offset="1"
     id="stop8-9" /></linearGradient><linearGradient
   id="linearGradient105-3"
   x1="5254.2998"
   x2="6262"
   y1="1399.1"
   y2="1399.1"
   gradientUnits="userSpaceOnUse"
   xlink:href="#linearGradient106" /><clipPath
   id="clipPath674-3-6"><path
     d="m 5487.9,1014 c -126.1,0 -230.14,102.24 -231.89,228.72 l -1.67,120.47 c -3.13,226.95 179.97,415.2 406.92,418.33 l 180.7,2.51 c 1.91,0.03 3.84,0.04 5.74,0.04 224.38,0 409.48,-181.92 412.6,-406.95 l 1.67,-120.47 c 1.77,-128.09 -100.63,-233.35 -228.7,-235.13 l -542.13,-7.5 c -1.08,-0.01 -2.17,-0.02 -3.24,-0.02 m 306.33,550.39 c -7.57,0 -15.2,-0.03 -22.86,-0.09 -57.66,-0.46 -112.94,-2.65 -165.57,-6.12 -124.42,-8.2 -224.79,-95.82 -238.71,-208.17 l -0.3,-2.41 c -4.1,-33.18 14.59,-65.2 47.14,-80.73 12.85,-6.13 27.16,-9.33 41.7,-9.33 0.45,0 0.91,0 1.36,0.01 l 603.67,8.36 c 15,0.21 29.71,3.83 42.77,10.51 32.11,16.43 49.91,48.95 44.88,82 l -0.36,2.42 c -17.08,112.34 -120.58,196.79 -245.65,201.51 -34.94,1.32 -70.98,2.04 -108.07,2.04"
     id="path2-3-2" /></clipPath><clipPath
   id="clipPath676-7-6"><path
     d="m 5455.6,1257.5 c -14.54,0 -28.85,3.2 -41.7,9.33 -32.55,15.53 -51.24,47.55 -47.14,80.73 l 0.3,2.41 c 13.92,112.35 114.29,199.97 238.71,208.17 52.63,3.47 107.91,5.66 165.57,6.12 7.66,0.06 15.29,0.09 22.86,0.09 37.09,0 73.13,-0.72 108.07,-2.04 125.07,-4.72 228.57,-89.17 245.65,-201.51 l 0.36,-2.42 c 5.03,-33.05 -12.77,-65.57 -44.88,-82 -13.06,-6.68 -27.77,-10.3 -42.77,-10.51 l -603.67,-8.36 c -0.45,-0.01 -0.91,-0.01 -1.36,-0.01 m 491.87,252.71 c -0.54,0 -1.08,0 -1.63,-0.01 -62.86,-0.87 -113.12,-52.54 -112.25,-115.4 0.87,-62.34 51.67,-112.26 113.8,-112.26 0.54,0 1.08,0 1.61,0.01 62.87,0.86 113.12,52.54 112.25,115.41 -0.86,62.32 -51.64,112.25 -113.78,112.25 m -349.67,1.66 c -0.53,0 -1.07,0 -1.6,-0.01 -62.88,-0.87 -113.13,-52.54 -112.26,-115.41 0.86,-62.33 51.66,-112.27 113.81,-112.27 0.53,0 1.07,0.01 1.6,0.02 62.86,0.88 113.13,52.53 112.25,115.41 -0.87,62.33 -51.66,112.26 -113.8,112.26"
     id="path3-6-1" /></clipPath><clipPath
   id="clipPath680-3-8"><path
     d="m 5666.4,1399 c 0.53,-37.9 -29.76,-69.05 -67.66,-69.57 -37.92,-0.53 -69.06,29.77 -69.58,67.67 -0.53,37.9 29.77,69.05 67.67,69.58 37.9,0.52 69.05,-29.78 69.57,-67.68 z"
     id="path4-7-7" /></clipPath><linearGradient
   id="linearGradient139-9"
   x1="746.40997"
   x2="753.19"
   y1="571.96002"
   y2="571.96002"
   gradientUnits="userSpaceOnUse"
   xlink:href="#linearGradient106" /><linearGradient
   id="linearGradient141-2"
   x1="742.94"
   x2="745.65002"
   y1="579.04999"
   y2="579.04999"
   gradientUnits="userSpaceOnUse"
   xlink:href="#linearGradient106" /><linearGradient
   id="linearGradient140-3"
   x1="739.54999"
   x2="740.90002"
   y1="576.27002"
   y2="576.27002"
   gradientUnits="userSpaceOnUse"
   xlink:href="#linearGradient106" /><linearGradient
   id="linearGradient137-7"
   x1="782.08002"
   x2="803.87"
   y1="572.21997"
   y2="572.21997"
   gradientUnits="userSpaceOnUse"
   xlink:href="#linearGradient106" /><clipPath
   id="clipPath687-6-5"><path
     d="m 6016.1,1397.3 c 0.53,-37.9 -29.78,-69.04 -67.68,-69.57 -37.9,-0.53 -69.05,29.78 -69.58,67.68 -0.51,37.9 29.78,69.05 67.68,69.57 37.91,0.52 69.05,-29.77 69.58,-67.68 z"
     id="path5-5-9" /></clipPath><linearGradient
   id="linearGradient142-2"
   x1="793.03998"
   x2="799.82001"
   y1="572.16998"
   y2="572.16998"
   gradientUnits="userSpaceOnUse"
   xlink:href="#linearGradient106" /><linearGradient
   id="linearGradient143-2"
   x1="789.56"
   x2="792.26001"
   y1="579.26001"
   y2="579.26001"
   gradientUnits="userSpaceOnUse"
   xlink:href="#linearGradient106" /><linearGradient
   id="linearGradient144-8"
   x1="786.17999"
   x2="787.53003"
   y1="576.48999"
   y2="576.48999"
   gradientUnits="userSpaceOnUse"
   xlink:href="#linearGradient106" />
	
	
	
	
	
</defs><sodipodi:namedview
   id="namedview14"
   pagecolor="#505050"
   bordercolor="#ffffff"
   borderopacity="1"
   inkscape:showpageshadow="0"
   inkscape:pageopacity="0"
   inkscape:pagecheckerboard="1"
   inkscape:deskcolor="#505050"
   inkscape:zoom="1.039447"
   inkscape:cx="223.67663"
   inkscape:cy="220.30946"
   inkscape:window-width="1440"
   inkscape:window-height="831"
   inkscape:window-x="0"
   inkscape:window-y="0"
   inkscape:window-maximized="1"
   inkscape:current-layer="Layer_1" />










<path
   id="rect21"
   style="fill:#600efe;fill-opacity:1;stroke-width:0.0571265;stroke-linecap:round;stroke-linejoin:round;paint-order:stroke fill markers"
   d="M 24.1125,0 C 10.75357,0 0,10.753567 0,24.1125 v 243.68625 c 0,13.35893 10.75357,24.1125 24.1125,24.1125 H 143.36 c 13.35893,0 24.11375,-10.75357 24.11375,-24.1125 V 24.1125 C 167.47375,10.753567 156.71893,0 143.36,0 Z M 73.995,2.2625 A 3.9183674,3.9183674 0 0 1 77.91375,6.18125 3.9183674,3.9183674 0 0 1 73.995,10.1 3.9183674,3.9183674 0 0 1 70.0775,6.18125 3.9183674,3.9183674 0 0 1 73.995,2.2625 Z m 9.57875,0 A 3.9183674,3.9183674 0 0 1 87.4925,6.18125 3.9183674,3.9183674 0 0 1 83.57375,10.1 3.9183674,3.9183674 0 0 1 79.655,6.18125 3.9183674,3.9183674 0 0 1 83.57375,2.2625 Z m 9.905,0 A 3.9183674,3.9183674 0 0 1 97.39625,6.18125 3.9183674,3.9183674 0 0 1 93.47875,10.1 3.9183674,3.9183674 0 0 1 89.56,6.18125 3.9183674,3.9183674 0 0 1 93.47875,2.2625 Z m -30.0675,265.18625 h 40.65 c 3.08079,0 5.56125,2.48046 5.56125,5.56125 0,3.08079 -2.48046,5.56125 -5.56125,5.56125 h -40.65 c -3.08079,0 -5.56125,-2.48046 -5.56125,-5.56125 0,-3.08079 2.48046,-5.56125 5.56125,-5.56125 z" /><style
   type="text/css"
   id="style27">
	.st0{fill:#000000;}
</style><style
   type="text/css"
   id="style28">
	.st0{fill:#000000;}
</style><style
   type="text/css"
   id="style29">
	.st0{fill:#000000;}
</style><style
   type="text/css"
   id="style30">
	.st0{fill:#000000;}
</style><style
   type="text/css"
   id="style31">
	.st0{fill:#000000;}
</style><style
   type="text/css"
   id="style32">
	.st0{fill:#000000;}
</style><style
   type="text/css"
   id="style33">
	.st0{fill:#000000;}
</style><style
   type="text/css"
   id="style34">
	.st0{fill:#000000;}
</style><style
   type="text/css"
   id="style35">
	.st0{fill:#000000;}
</style><style
   type="text/css"
   id="style36">
	.st0{fill:#000000;}
</style><style
   type="text/css"
   id="style37">
	.st0{fill:#000000;}
</style><style
   type="text/css"
   id="style38">
	.st0{fill:#000000;}
</style><style
   type="text/css"
   id="style39">
	.st0{fill:#000000;}
</style><style
   type="text/css"
   id="style40">
	.st0{fill:#000000;}
</style><style
   type="text/css"
   id="style41">
	.st0{fill:#000000;}
</style><style
   type="text/css"
   id="style42">
	.st0{fill:#000000;}
</style><style
   type="text/css"
   id="style43">
	.st0{fill:#000000;}
</style><style
   type="text/css"
   id="style44">
	.st0{fill:#000000;}
</style><style
   type="text/css"
   id="style45">
	.st0{fill:#000000;}
</style><style
   type="text/css"
   id="style46">
	.st0{fill:#000000;}
</style><style
   type="text/css"
   id="style47">
	.st0{fill:#000000;}
</style><style
   type="text/css"
   id="style48">
	.st0{fill:#000000;}
</style><style
   type="text/css"
   id="style49">
	.st0{fill:#000000;}
</style><style
   type="text/css"
   id="style50">
	.st0{fill:#000000;}
</style><style
   type="text/css"
   id="style51">
	.st0{fill:#000000;}
</style><style
   type="text/css"
   id="style52">
	.st0{fill:#000000;}
</style><style
   type="text/css"
   id="style53">
	.st0{fill:#000000;}
</style><style
   type="text/css"
   id="style54">
	.st0{fill:#000000;}
</style><style
   type="text/css"
   id="style55">
	.st0{fill:#000000;}
</style><style
   type="text/css"
   id="style56">
	.st0{fill:#000000;}
</style><style
   type="text/css"
   id="style57">
	.st0{fill:#000000;}
</style><style
   type="text/css"
   id="style58">
	.st0{fill:#000000;}
</style><style
   type="text/css"
   id="style59">
	.st0{fill:#000000;}
</style><style
   type="text/css"
   id="style60">
	.st0{fill:#000000;}
</style><style
   type="text/css"
   id="style61">
	.st0{fill:#000000;}
</style><style
   type="text/css"
   id="style62">
	.st0{fill:#000000;}
</style><style
   type="text/css"
   id="style63">
	.st0{fill:#000000;}
</style><style
   type="text/css"
   id="style64">
	.st0{fill:#000000;}
</style><style
   type="text/css"
   id="style65">
	.st0{fill:#000000;}
</style><style
   type="text/css"
   id="style66">
	.st0{fill:#000000;}
</style><style
   type="text/css"
   id="style67">
	.st0{fill:#000000;}
</style><style
   type="text/css"
   id="style68">
	.st0{fill:#000000;}
</style><style
   type="text/css"
   id="style69">
	.st0{fill:#000000;}
</style><style
   type="text/css"
   id="style70">
	.st0{fill:#000000;}
</style><style
   type="text/css"
   id="style71">
	.st0{fill:#000000;}
</style><style
   type="text/css"
   id="style72">
	.st0{fill:#000000;}
</style><style
   type="text/css"
   id="style73">
	.st0{fill:#000000;}
</style><style
   type="text/css"
   id="style74">
	.st0{fill:#000000;}
</style><style
   type="text/css"
   id="style75">
	.st0{fill:#000000;}
</style><style
   type="text/css"
   id="style76">
	.st0{fill:#000000;}
</style><style
   type="text/css"
   id="style77">
	.st0{fill:#000000;}
</style><style
   type="text/css"
   id="style78">
	.st0{fill:#000000;}
</style><style
   type="text/css"
   id="style79">
	.st0{fill:#000000;}
</style><style
   type="text/css"
   id="style80">
	.st0{fill:#000000;}
</style><style
   type="text/css"
   id="style81">
	.st0{fill:#000000;}
</style><style
   type="text/css"
   id="style82">
	.st0{fill:#000000;}
</style><style
   type="text/css"
   id="style83">
	.st0{fill:#000000;}
</style><style
   type="text/css"
   id="style84">
	.st0{fill:#000000;}
</style><style
   type="text/css"
   id="style85">
	.st0{fill:#000000;}
</style><style
   type="text/css"
   id="style86">
	.st0{fill:#000000;}
</style><style
   type="text/css"
   id="style87">
	.st0{fill:#000000;}
</style><style
   type="text/css"
   id="style88">
	.st0{fill:#000000;}
</style><style
   type="text/css"
   id="style89">
	.st0{fill:#000000;}
</style><style
   type="text/css"
   id="style90">
	.st0{fill:#000000;}
</style><style
   type="text/css"
   id="style91">
	.st0{fill:#000000;}
</style><style
   type="text/css"
   id="style92">
	.st0{fill:#000000;}
</style><style
   type="text/css"
   id="style93">
	.st0{fill:#000000;}
</style><style
   type="text/css"
   id="style94">
	.st0{fill:#000000;}
</style><style
   type="text/css"
   id="style95">
	.st0{fill:#000000;}
</style><style
   type="text/css"
   id="style96">
	.st0{fill:#000000;}
</style><style
   type="text/css"
   id="style97">
	.st0{fill:#000000;}
</style><style
   type="text/css"
   id="style98">
	.st0{fill:#000000;}
</style><style
   type="text/css"
   id="style99">
	.st0{fill:#000000;}
</style><style
   type="text/css"
   id="style100">
	.st0{fill:#000000;}
</style><style
   type="text/css"
   id="style101">
	.st0{fill:#000000;}
</style><style
   type="text/css"
   id="style102">
	.st0{fill:#000000;}
</style><style
   type="text/css"
   id="style103">
	.st0{fill:#000000;}
</style><style
   type="text/css"
   id="style104">
	.st0{fill:#000000;}
</style><style
   type="text/css"
   id="style105">
	.st0{fill:#000000;}
</style><style
   type="text/css"
   id="style106">
	.st0{fill:#000000;}
</style><style
   type="text/css"
   id="style107">
	.st0{fill:#000000;}
</style><style
   type="text/css"
   id="style108">
	.st0{fill:#000000;}
</style><style
   type="text/css"
   id="style109">
	.st0{fill:#000000;}
</style><style
   type="text/css"
   id="style110">
	.st0{fill:#000000;}
</style><style
   type="text/css"
   id="style111">
	.st0{fill:#000000;}
</style><style
   type="text/css"
   id="style112">
	.st0{fill:#000000;}
</style><style
   type="text/css"
   id="style113">
	.st0{fill:#000000;}
</style><style
   type="text/css"
   id="style114">
	.st0{fill:#000000;}
</style><style
   type="text/css"
   id="style115">
	.st0{fill:#000000;}
</style><style
   type="text/css"
   id="style116">
	.st0{fill:#000000;}
</style><style
   type="text/css"
   id="style117">
	.st0{fill:#000000;}
</style><style
   type="text/css"
   id="style118">
	.st0{fill:#000000;}
</style><style
   type="text/css"
   id="style119">
	.st0{fill:#000000;}
</style><style
   type="text/css"
   id="style120">
	.st0{fill:#000000;}
</style><style
   type="text/css"
   id="style121">
	.st0{fill:#000000;}
</style><style
   type="text/css"
   id="style122">
	.st0{fill:#000000;}
</style><style
   type="text/css"
   id="style123">
	.st0{fill:#000000;}
</style><style
   type="text/css"
   id="style124">
	.st0{fill:#000000;}
</style><style
   type="text/css"
   id="style125">
	.st0{fill:#000000;}
</style><style
   type="text/css"
   id="style126">
	.st0{fill:#000000;}
</style><style
   type="text/css"
   id="style127">
	.st0{fill:#000000;}
</style><style
   type="text/css"
   id="style128">
	.st0{fill:#000000;}
</style><style
   type="text/css"
   id="style129">
	.st0{fill:#000000;}
</style><style
   type="text/css"
   id="style130">
	.st0{fill:#000000;}
</style><style
   type="text/css"
   id="style131">
	.st0{fill:#000000;}
</style><style
   type="text/css"
   id="style132">
	.st0{fill:#000000;}
</style><style
   type="text/css"
   id="style133">
	.st0{fill:#000000;}
</style><style
   type="text/css"
   id="style134">
	.st0{fill:#000000;}
</style><style
   type="text/css"
   id="style135">
	.st0{fill:#000000;}
</style><style
   type="text/css"
   id="style136">
	.st0{fill:#000000;}
</style><style
   type="text/css"
   id="style137">
	.st0{fill:#000000;}
</style><style
   type="text/css"
   id="style138">
	.st0{fill:#000000;}
</style><style
   type="text/css"
   id="style139">
	.st0{fill:#000000;}
</style><style
   type="text/css"
   id="style140">
	.st0{fill:#000000;}
</style><style
   type="text/css"
   id="style141">
	.st0{fill:#000000;}
</style><style
   type="text/css"
   id="style142">
	.st0{fill:#000000;}
</style><style
   type="text/css"
   id="style143">
	.st0{fill:#000000;}
</style><style
   type="text/css"
   id="style144">
	.st0{fill:#000000;}
</style><style
   type="text/css"
   id="style145">
	.st0{fill:#000000;}
</style><style
   type="text/css"
   id="style146">
	.st0{fill:#000000;}
</style><style
   type="text/css"
   id="style147">
	.st0{fill:#000000;}
</style><style
   type="text/css"
   id="style148">
	.st0{fill:#000000;}
</style><style
   type="text/css"
   id="style149">
	.st0{fill:#000000;}
</style><style
   type="text/css"
   id="style150">
	.st0{fill:#000000;}
</style><style
   type="text/css"
   id="style151">
	.st0{fill:#000000;}
</style><style
   type="text/css"
   id="style152">
	.st0{fill:#000000;}
</style><style
   type="text/css"
   id="style153">
	.st0{fill:#000000;}
</style><style
   type="text/css"
   id="style154">
	.st0{fill:#000000;}
</style><style
   type="text/css"
   id="style155">
	.st0{fill:#000000;}
</style><style
   type="text/css"
   id="style156">
	.st0{fill:#000000;}
</style><style
   type="text/css"
   id="style157">
	.st0{fill:#000000;}
</style><style
   type="text/css"
   id="style158">
	.st0{fill:#000000;}
</style><style
   type="text/css"
   id="style159">
	.st0{fill:#000000;}
</style><style
   type="text/css"
   id="style160">
	.st0{fill:#000000;}
</style><style
   type="text/css"
   id="style161">
	.st0{fill:#000000;}
</style><style
   type="text/css"
   id="style162">
	.st0{fill:#000000;}
</style><style
   type="text/css"
   id="style163">
	.st0{fill:#000000;}
</style><style
   type="text/css"
   id="style164">
	.st0{fill:#000000;}
</style><style
   type="text/css"
   id="style165">
	.st0{fill:#000000;}
</style><style
   type="text/css"
   id="style166">
	.st0{fill:#000000;}
</style><style
   type="text/css"
   id="style167">
	.st0{fill:#000000;}
</style><style
   type="text/css"
   id="style168">
	.st0{fill:#000000;}
</style><style
   type="text/css"
   id="style169">
	.st0{fill:#000000;}
</style><style
   type="text/css"
   id="style170">
	.st0{fill:#000000;}
</style><g
   id="g30"
   transform="matrix(0.37762815,0,0,0.37762815,244.07385,30.14674)"><g
     id="g29"><rect
       style="fill:#14001a;fill-opacity:1;stroke-width:0.05504;stroke-linecap:round;stroke-linejoin:round;paint-order:stroke fill markers"
       id="rect28"
       width="146.28571"
       height="10.448979"
       x="-491.37036"
       y="322.17688"
       ry="5.2244897" /><g
       id="g28"><circle
         cx="-336.07172"
         cy="-327.07062"
         r="55.162292"
         fill="#14001a"
         stroke-width="3.53261"
         id="circle13"
         transform="scale(1,-1)" /><circle
         cx="-500.3833"
         cy="-327.07062"
         r="55.162292"
         fill="#14001a"
         stroke-width="3.53261"
         id="circle14"
         transform="scale(1,-1)" /><path
         d="m -461.61637,327.91956 c 0.29214,-21.25676 -16.69715,-38.7236 -37.9539,-39.01789 -21.25676,-0.29674 -38.72171,16.69225 -39.01412,37.94637 -0.29673,21.25675 16.69716,38.7217 37.94637,39.0141 21.2511,0.29674 38.7217,-16.69715 39.01788,-37.94447"
         fill="url(#linearGradient136)"
         stroke-width="0.470996"
         id="path17"
         style="fill:url(#linearGradient136)" /><path
         transform="matrix(0.47099518,0,0,0.47099518,-3136.6698,-331.11905)"
         d="m 5666.4,1399 c 0.53,-37.9 -29.76,-69.05 -67.66,-69.57 -37.92,-0.53 -69.06,29.77 -69.58,67.67 -0.53,37.9 29.77,69.05 67.67,69.58 37.9,0.52 69.05,-29.78 69.57,-67.68"
         clip-path="url(#clipPath680-3-8)"
         fill="#14001a"
         id="path18" /><g
         transform="matrix(3.5326053,0,0,-3.5326053,-3136.6698,2348.0092)"
         stroke-width="0.13333"
         id="g22"><path
           d="m 753.19,571.91 c 0.0253,1.872 -1.472,3.4106 -3.3426,3.4359 -1.872,0.0267 -3.4119,-1.4706 -3.4372,-3.3412 -0.0267,-1.8733 1.4706,-3.4119 3.3426,-3.4386 1.872,-0.0253 3.4106,1.472 3.4372,3.3439"
           fill="url(#linearGradient139)"
           id="path19"
           style="fill:url(#linearGradient139-9)" /><path
           d="m 745.65,579.03 c 0.009,0.74665 -0.58799,1.3613 -1.3333,1.3706 -0.74799,0.0107 -1.3613,-0.58665 -1.372,-1.3346 -0.0107,-0.74531 0.58665,-1.36 1.3333,-1.3706 0.74798,-0.0107 1.3613,0.58798 1.372,1.3346"
           fill="url(#linearGradient141)"
           id="path20"
           style="fill:url(#linearGradient141-2)" /><path
           d="m 740.9,576.26 c 0.005,0.37332 -0.29333,0.67998 -0.66665,0.68531 -0.37333,0.004 -0.67999,-0.29332 -0.68532,-0.66665 -0.005,-0.37332 0.29333,-0.67998 0.66665,-0.68531 0.37466,-0.005 0.67998,0.29332 0.68532,0.66665"
           fill="url(#linearGradient140)"
           id="path21"
           style="fill:url(#linearGradient140-3)" /><path
           d="m 803.87,572.07 c 0.0827,6.0172 -4.7266,10.961 -10.742,11.045 -6.0172,0.0827 -10.962,-4.7266 -11.045,-10.742 -0.084,-6.0172 4.7266,-10.962 10.742,-11.045 6.0172,-0.084 10.961,4.7266 11.045,10.742"
           fill="url(#linearGradient137)"
           id="path22"
           style="fill:url(#linearGradient137-7)" /></g><path
         transform="matrix(0.47099518,0,0,0.47099518,-3136.6698,-331.11905)"
         d="m 6016.1,1397.3 c 0.53,-37.9 -29.78,-69.04 -67.68,-69.57 -37.9,-0.53 -69.05,29.78 -69.58,67.68 -0.51,37.9 29.78,69.05 67.68,69.57 37.91,0.52 69.05,-29.77 69.58,-67.68"
         clip-path="url(#clipPath687-6-5)"
         fill="#14001a"
         id="path23" /><g
         transform="matrix(3.5326053,0,0,-3.5326053,-3136.6698,2348.0092)"
         stroke-width="0.13333"
         id="g26"><path
           d="m 799.82,572.12 c 0.0267,1.8733 -1.4693,3.4106 -3.3412,3.4359 -1.8733,0.0267 -3.4106,-1.4693 -3.4359,-3.3412 -0.0267,-1.8733 1.4693,-3.4106 3.3412,-3.4372 1.8733,-0.0253 3.4106,1.4706 3.4359,3.3426"
           fill="url(#linearGradient142)"
           id="path24"
           style="fill:url(#linearGradient142-2)" /><path
           d="m 792.26,579.24 c 0.0107,0.74798 -0.58532,1.3613 -1.3333,1.3706 -0.74531,0.0107 -1.36,-0.58532 -1.3706,-1.3333 -0.0107,-0.74665 0.58665,-1.36 1.3346,-1.3706 0.74665,-0.0107 1.3613,0.58798 1.3693,1.3333"
           fill="url(#linearGradient143)"
           id="path25"
           style="fill:url(#linearGradient143-2)" /><path
           d="m 787.53,576.48 c 0.005,0.37332 -0.29333,0.68131 -0.66665,0.68665 -0.37466,0.004 -0.68132,-0.29333 -0.68665,-0.66665 -0.005,-0.37466 0.29332,-0.68132 0.66665,-0.68665 0.37332,-0.005 0.68131,0.29466 0.68665,0.66665"
           fill="url(#linearGradient144)"
           id="path26"
           style="fill:url(#linearGradient144-8)" /></g></g></g><g
     id="g19"
     transform="translate(-1221.5727,54.182658)"><path
       id="path6"
       style="fill:#14001a;fill-opacity:1"
       d="m 708.22125,69.9675 c -13.155,0.04 -23.787,10.74 -23.745,23.895 v 81.96375 c -22.35043,4.38798 -44.21457,11.21805 -65.18875,20.4075 l -36.39125,15.96 H 1011.07 L 983.6275,199.3575 C 959.23763,188.01738 933.56905,179.87934 907.25875,175.08375 V 93.8625 c -0.039,-2.086 -0.35125,-4.15825 -0.93125,-6.16125 C 902.6815,75.06125 889.47875,67.769 876.83875,71.415 L 798.18,93.86375 c -1.513,0.425 -3.1145,0.425 -4.6275,0 L 714.89375,70.9 c -2.169,-0.625 -4.4145,-0.9395 -6.6725,-0.9325 z" /></g></g></svg>
