<?xml version="1.0" encoding="UTF-8"?>
<!-- Uploaded to: SVG Repo, www.svgrepo.com, Generator: SVG Repo Mixer Tools -->
<svg width="260.72" height="260.72" version="1.1" viewBox="0 0 166.86 166.86" xml:space="preserve" xmlns="http://www.w3.org/2000/svg" xmlns:xlink="http://www.w3.org/1999/xlink"><defs><linearGradient id="linearGradient106"><stop stop-color="#5c0dfe" offset="0"/><stop stop-color="#a324ff" offset="1"/></linearGradient><linearGradient id="linearGradient136" x1="1285.2" x2="1693.3" y1="2243.3" y2="2243.3" gradientTransform="matrix(.18865 0 0 -.18865 -781.05 750.59)" gradientUnits="userSpaceOnUse" xlink:href="#linearGradient106"/><clipPath id="clipPath680-3-8"><path d="m5666.4 1399c0.53-37.9-29.76-69.05-67.66-69.57-37.92-0.53-69.06 29.77-69.58 67.67-0.53 37.9 29.77 69.05 67.67 69.58 37.9 0.52 69.05-29.78 69.57-67.68z"/></clipPath><linearGradient id="linearGradient139-9" x1="746.41" x2="753.19" y1="571.96" y2="571.96" gradientUnits="userSpaceOnUse" xlink:href="#linearGradient106"/><linearGradient id="linearGradient141-2" x1="742.94" x2="745.65" y1="579.05" y2="579.05" gradientUnits="userSpaceOnUse" xlink:href="#linearGradient106"/><linearGradient id="linearGradient140-3" x1="739.55" x2="740.9" y1="576.27" y2="576.27" gradientUnits="userSpaceOnUse" xlink:href="#linearGradient106"/><linearGradient id="linearGradient137-7" x1="782.08" x2="803.87" y1="572.22" y2="572.22" gradientUnits="userSpaceOnUse" xlink:href="#linearGradient106"/><clipPath id="clipPath687-6-5"><path d="m6016.1 1397.3c0.53-37.9-29.78-69.04-67.68-69.57s-69.05 29.78-69.58 67.68c-0.51 37.9 29.78 69.05 67.68 69.57 37.91 0.52 69.05-29.77 69.58-67.68z"/></clipPath><linearGradient id="linearGradient142-2" x1="793.04" x2="799.82" y1="572.17" y2="572.17" gradientUnits="userSpaceOnUse" xlink:href="#linearGradient106"/><linearGradient id="linearGradient143-2" x1="789.56" x2="792.26" y1="579.26" y2="579.26" gradientUnits="userSpaceOnUse" xlink:href="#linearGradient106"/><linearGradient id="linearGradient144-8" x1="786.18" x2="787.53" y1="576.49" y2="576.49" gradientUnits="userSpaceOnUse" xlink:href="#linearGradient106"/>
	
	
	
	
	
</defs>










<style type="text/css">
	.st0{fill:#000000;}
</style><style type="text/css">
	.st0{fill:#000000;}
</style><style type="text/css">
	.st0{fill:#000000;}
</style><style type="text/css">
	.st0{fill:#000000;}
</style><style type="text/css">
	.st0{fill:#000000;}
</style><style type="text/css">
	.st0{fill:#000000;}
</style><style type="text/css">
	.st0{fill:#000000;}
</style><style type="text/css">
	.st0{fill:#000000;}
</style><style type="text/css">
	.st0{fill:#000000;}
</style><style type="text/css">
	.st0{fill:#000000;}
</style><style type="text/css">
	.st0{fill:#000000;}
</style><style type="text/css">
	.st0{fill:#000000;}
</style><style type="text/css">
	.st0{fill:#000000;}
</style><style type="text/css">
	.st0{fill:#000000;}
</style><style type="text/css">
	.st0{fill:#000000;}
</style><style type="text/css">
	.st0{fill:#000000;}
</style><style type="text/css">
	.st0{fill:#000000;}
</style><style type="text/css">
	.st0{fill:#000000;}
</style><style type="text/css">
	.st0{fill:#000000;}
</style><style type="text/css">
	.st0{fill:#000000;}
</style><style type="text/css">
	.st0{fill:#000000;}
</style><style type="text/css">
	.st0{fill:#000000;}
</style><style type="text/css">
	.st0{fill:#000000;}
</style><style type="text/css">
	.st0{fill:#000000;}
</style><style type="text/css">
	.st0{fill:#000000;}
</style><style type="text/css">
	.st0{fill:#000000;}
</style><style type="text/css">
	.st0{fill:#000000;}
</style><style type="text/css">
	.st0{fill:#000000;}
</style><style type="text/css">
	.st0{fill:#000000;}
</style><style type="text/css">
	.st0{fill:#000000;}
</style><style type="text/css">
	.st0{fill:#000000;}
</style><style type="text/css">
	.st0{fill:#000000;}
</style><style type="text/css">
	.st0{fill:#000000;}
</style><style type="text/css">
	.st0{fill:#000000;}
</style><style type="text/css">
	.st0{fill:#000000;}
</style><style type="text/css">
	.st0{fill:#000000;}
</style><style type="text/css">
	.st0{fill:#000000;}
</style><style type="text/css">
	.st0{fill:#000000;}
</style><style type="text/css">
	.st0{fill:#000000;}
</style><style type="text/css">
	.st0{fill:#000000;}
</style><style type="text/css">
	.st0{fill:#000000;}
</style><style type="text/css">
	.st0{fill:#000000;}
</style><style type="text/css">
	.st0{fill:#000000;}
</style><style type="text/css">
	.st0{fill:#000000;}
</style><style type="text/css">
	.st0{fill:#000000;}
</style><style type="text/css">
	.st0{fill:#000000;}
</style><style type="text/css">
	.st0{fill:#000000;}
</style><style type="text/css">
	.st0{fill:#000000;}
</style><style type="text/css">
	.st0{fill:#000000;}
</style><style type="text/css">
	.st0{fill:#000000;}
</style><style type="text/css">
	.st0{fill:#000000;}
</style><style type="text/css">
	.st0{fill:#000000;}
</style><style type="text/css">
	.st0{fill:#000000;}
</style><style type="text/css">
	.st0{fill:#000000;}
</style><style type="text/css">
	.st0{fill:#000000;}
</style><style type="text/css">
	.st0{fill:#000000;}
</style><style type="text/css">
	.st0{fill:#000000;}
</style><style type="text/css">
	.st0{fill:#000000;}
</style><style type="text/css">
	.st0{fill:#000000;}
</style><style type="text/css">
	.st0{fill:#000000;}
</style><style type="text/css">
	.st0{fill:#000000;}
</style><style type="text/css">
	.st0{fill:#000000;}
</style><style type="text/css">
	.st0{fill:#000000;}
</style><style type="text/css">
	.st0{fill:#000000;}
</style><style type="text/css">
	.st0{fill:#000000;}
</style><style type="text/css">
	.st0{fill:#000000;}
</style><style type="text/css">
	.st0{fill:#000000;}
</style><style type="text/css">
	.st0{fill:#000000;}
</style><style type="text/css">
	.st0{fill:#000000;}
</style><style type="text/css">
	.st0{fill:#000000;}
</style><style type="text/css">
	.st0{fill:#000000;}
</style><style type="text/css">
	.st0{fill:#000000;}
</style><style type="text/css">
	.st0{fill:#000000;}
</style><style type="text/css">
	.st0{fill:#000000;}
</style><style type="text/css">
	.st0{fill:#000000;}
</style><style type="text/css">
	.st0{fill:#000000;}
</style><style type="text/css">
	.st0{fill:#000000;}
</style><style type="text/css">
	.st0{fill:#000000;}
</style><style type="text/css">
	.st0{fill:#000000;}
</style><style type="text/css">
	.st0{fill:#000000;}
</style><style type="text/css">
	.st0{fill:#000000;}
</style><style type="text/css">
	.st0{fill:#000000;}
</style><style type="text/css">
	.st0{fill:#000000;}
</style><style type="text/css">
	.st0{fill:#000000;}
</style><style type="text/css">
	.st0{fill:#000000;}
</style><style type="text/css">
	.st0{fill:#000000;}
</style><style type="text/css">
	.st0{fill:#000000;}
</style><style type="text/css">
	.st0{fill:#000000;}
</style><style type="text/css">
	.st0{fill:#000000;}
</style><style type="text/css">
	.st0{fill:#000000;}
</style><style type="text/css">
	.st0{fill:#000000;}
</style><style type="text/css">
	.st0{fill:#000000;}
</style><style type="text/css">
	.st0{fill:#000000;}
</style><style type="text/css">
	.st0{fill:#000000;}
</style><style type="text/css">
	.st0{fill:#000000;}
</style><style type="text/css">
	.st0{fill:#000000;}
</style><style type="text/css">
	.st0{fill:#000000;}
</style><style type="text/css">
	.st0{fill:#000000;}
</style><style type="text/css">
	.st0{fill:#000000;}
</style><style type="text/css">
	.st0{fill:#000000;}
</style><style type="text/css">
	.st0{fill:#000000;}
</style><style type="text/css">
	.st0{fill:#000000;}
</style><style type="text/css">
	.st0{fill:#000000;}
</style><style type="text/css">
	.st0{fill:#000000;}
</style><style type="text/css">
	.st0{fill:#000000;}
</style><style type="text/css">
	.st0{fill:#000000;}
</style><style type="text/css">
	.st0{fill:#000000;}
</style><style type="text/css">
	.st0{fill:#000000;}
</style><style type="text/css">
	.st0{fill:#000000;}
</style><style type="text/css">
	.st0{fill:#000000;}
</style><style type="text/css">
	.st0{fill:#000000;}
</style><style type="text/css">
	.st0{fill:#000000;}
</style><style type="text/css">
	.st0{fill:#000000;}
</style><style type="text/css">
	.st0{fill:#000000;}
</style><style type="text/css">
	.st0{fill:#000000;}
</style><style type="text/css">
	.st0{fill:#000000;}
</style><style type="text/css">
	.st0{fill:#000000;}
</style><style type="text/css">
	.st0{fill:#000000;}
</style><style type="text/css">
	.st0{fill:#000000;}
</style><style type="text/css">
	.st0{fill:#000000;}
</style><style type="text/css">
	.st0{fill:#000000;}
</style><style type="text/css">
	.st0{fill:#000000;}
</style><style type="text/css">
	.st0{fill:#000000;}
</style><style type="text/css">
	.st0{fill:#000000;}
</style><style type="text/css">
	.st0{fill:#000000;}
</style><style type="text/css">
	.st0{fill:#000000;}
</style><style type="text/css">
	.st0{fill:#000000;}
</style><style type="text/css">
	.st0{fill:#000000;}
</style><style type="text/css">
	.st0{fill:#000000;}
</style><style type="text/css">
	.st0{fill:#000000;}
</style><style type="text/css">
	.st0{fill:#000000;}
</style><style type="text/css">
	.st0{fill:#000000;}
</style><style type="text/css">
	.st0{fill:#000000;}
</style><style type="text/css">
	.st0{fill:#000000;}
</style><style type="text/css">
	.st0{fill:#000000;}
</style><style type="text/css">
	.st0{fill:#000000;}
</style><style type="text/css">
	.st0{fill:#000000;}
</style><style type="text/css">
	.st0{fill:#000000;}
</style><style type="text/css">
	.st0{fill:#000000;}
</style><style type="text/css">
	.st0{fill:#000000;}
</style><style type="text/css">
	.st0{fill:#000000;}
</style><style type="text/css">
	.st0{fill:#000000;}
</style><style type="text/css">
	.st0{fill:#000000;}
</style><style type="text/css">
	.st0{fill:#000000;}
</style><g transform="matrix(.37763 0 0 .37763 243.77 -12.183)"><rect x="-491.37" y="322.18" width="146.29" height="10.449" ry="5.2245" fill="#14001a" stroke-linecap="round" stroke-linejoin="round" stroke-width=".05504" style="paint-order:stroke fill markers"/><circle transform="scale(1,-1)" cx="-336.07" cy="-327.07" r="55.162" fill="#14001a" stroke-width="3.5326"/><circle transform="scale(1,-1)" cx="-500.38" cy="-327.07" r="55.162" fill="#14001a" stroke-width="3.5326"/><path d="m-461.62 327.92c0.29214-21.257-16.697-38.724-37.954-39.018-21.257-0.29674-38.722 16.692-39.014 37.946-0.29673 21.257 16.697 38.722 37.946 39.014 21.251 0.29674 38.722-16.697 39.018-37.944" fill="url(#linearGradient136)" stroke-width=".471"/><path transform="matrix(.471 0 0 .471 -3136.7 -331.12)" d="m5666.4 1399c0.53-37.9-29.76-69.05-67.66-69.57-37.92-0.53-69.06 29.77-69.58 67.67-0.53 37.9 29.77 69.05 67.67 69.58 37.9 0.52 69.05-29.78 69.57-67.68" clip-path="url(#clipPath680-3-8)" fill="#14001a"/><g transform="matrix(3.5326 0 0 -3.5326 -3136.7 2348)" stroke-width=".13333"><path d="m753.19 571.91c0.0253 1.872-1.472 3.4106-3.3426 3.4359-1.872 0.0267-3.4119-1.4706-3.4372-3.3412-0.0267-1.8733 1.4706-3.4119 3.3426-3.4386 1.872-0.0253 3.4106 1.472 3.4372 3.3439" fill="url(#linearGradient139-9)"/><path d="m745.65 579.03c9e-3 0.74665-0.58799 1.3613-1.3333 1.3706-0.74799 0.0107-1.3613-0.58665-1.372-1.3346-0.0107-0.74531 0.58665-1.36 1.3333-1.3706 0.74798-0.0107 1.3613 0.58798 1.372 1.3346" fill="url(#linearGradient141-2)"/><path d="m740.9 576.26c5e-3 0.37332-0.29333 0.67998-0.66665 0.68531-0.37333 4e-3 -0.67999-0.29332-0.68532-0.66665-5e-3 -0.37332 0.29333-0.67998 0.66665-0.68531 0.37466-5e-3 0.67998 0.29332 0.68532 0.66665" fill="url(#linearGradient140-3)"/><path d="m803.87 572.07c0.0827 6.0172-4.7266 10.961-10.742 11.045-6.0172 0.0827-10.962-4.7266-11.045-10.742-0.084-6.0172 4.7266-10.962 10.742-11.045 6.0172-0.084 10.961 4.7266 11.045 10.742" fill="url(#linearGradient137-7)"/></g><path transform="matrix(.471 0 0 .471 -3136.7 -331.12)" d="m6016.1 1397.3c0.53-37.9-29.78-69.04-67.68-69.57s-69.05 29.78-69.58 67.68c-0.51 37.9 29.78 69.05 67.68 69.57 37.91 0.52 69.05-29.77 69.58-67.68" clip-path="url(#clipPath687-6-5)" fill="#14001a"/><g transform="matrix(3.5326 0 0 -3.5326 -3136.7 2348)" stroke-width=".13333"><path d="m799.82 572.12c0.0267 1.8733-1.4693 3.4106-3.3412 3.4359-1.8733 0.0267-3.4106-1.4693-3.4359-3.3412-0.0267-1.8733 1.4693-3.4106 3.3412-3.4372 1.8733-0.0253 3.4106 1.4706 3.4359 3.3426" fill="url(#linearGradient142-2)"/><path d="m792.26 579.24c0.0107 0.74798-0.58532 1.3613-1.3333 1.3706-0.74531 0.0107-1.36-0.58532-1.3706-1.3333-0.0107-0.74665 0.58665-1.36 1.3346-1.3706 0.74665-0.0107 1.3613 0.58798 1.3693 1.3333" fill="url(#linearGradient143-2)"/><path d="m787.53 576.48c5e-3 0.37332-0.29333 0.68131-0.66665 0.68665-0.37466 4e-3 -0.68132-0.29333-0.68665-0.66665-5e-3 -0.37466 0.29332-0.68132 0.66665-0.68665 0.37332-5e-3 0.68131 0.29466 0.68665 0.66665" fill="url(#linearGradient144-8)"/></g><g transform="translate(-1221.6 54.183)"><path d="m708.22 69.968c-13.155 0.04-23.787 10.74-23.745 23.895v81.964c-22.35 4.388-44.215 11.218-65.189 20.408l-36.391 15.96h428.17l-27.442-12.836c-24.39-11.34-50.058-19.478-76.369-24.274v-81.221c-0.039-2.086-0.35125-4.1582-0.93125-6.1612-3.646-12.64-16.849-19.932-29.489-16.286l-78.659 22.449c-1.513 0.425-3.1145 0.425-4.6275 0l-78.659-22.964c-2.169-0.625-4.4145-0.9395-6.6725-0.9325z" fill="#14001a"/></g></g></svg>
