<?xml version="1.0" encoding="UTF-8"?>
<svg width="1080" height="1080" version="1.1" viewBox="0 0 1080 1080" xml:space="preserve" xmlns="http://www.w3.org/2000/svg"><filter id="a" x="-.11055" y="-.11055" width="1.2211" height="1.2211" color-interpolation-filters="sRGB"><feGaussianBlur stdDeviation="6.670361"/></filter><g transform="matrix(1.1076 -1.4229 1.4229 1.1076 -14575 2832.4)" fill="#f60"><path d="m6099.6 5893.6c85.52-24.253 147.45-77.773 202.17-142.77-3.9466 7.7333-7.2266 15.907-11.92 23.16-48.493 74.68-114.01 127.35-198.57 157.12-41.96 14.773-83.76 29.12-128.12 33.813-16.133 1.7067-32.613 0.28-52.027 0.28 15.787-25.093 32.92-43.187 56.307-55.88-10.747 3.1467-21.493 6.2934-33.147 9.7067 1.1467-19 6.0134-33.12 24.027-42.96 43.107-23.533 84.947-49.413 127.52-73.947 23.413-13.493 47.333-26.12 70.96-39.227 13.973-7.7467 28.24-15.067 41.533-23.84 4.8267-3.2 7.88-9.76 10.587-15.347 6.5733-13.52 7.3733-13.733 19.08-5.16 1.8667 1.36 7.68 0.4533 9.2133-1.4133 4.4667-5.4534 7.1067-12.4 11.627-17.8 2.6133-3.1067 8.1333-6.7734 11.187-5.9334 8.1866 2.24 13.24-1.2266 17.573-6.6266 11.947-14.88 23.533-30.04 35.28-45.08 1.0667-1.36 2.32-2.5867 4.7067-5.2267 5.7333 18.373 5.2133 35.56 0.5333 52.013-10.307 36.253-31.16 66.133-58.307 92.12-46.773 44.76-98.2 82.68-157.07 110.09-0.6534 0.3066-1.1067 1-3.1467 2.9066"/><path d="m6157.6 5617.4c-33.733 12.627-61.293 37.507-80.467 66.6 25.813-21.36 54.48-45.08 80.467-66.6zm-202.37 147.75c31.093-32.347 62.173-64.68 93.267-97.027 0.5866 0.6267 1.16 1.2533 1.7466 1.8933-10.04 16.827-20.08 33.653-28.08 47.067 27.48-27.387 56.84-57.733 87.413-86.8 22.68-21.56 47.8-40.013 79.133-47.72 3.04-0.7467 5.9333-2.12 11.2-4.04-28.28-1.9867-67.787 15.28-122.39 47.547-56.067 33.133-93.2 82.08-122.29 139.08zm-53.773 88.907c7.6933-15.333 25.373-25.36 24.667-45.667-8.2666 9.1866-16.333 18.16-24.413 27.133-1.16-0.56-2.3333-1.1333-3.5067-1.6933 3.1734-10.36 5.16-21.267 9.7067-30.987 43.693-93.453 106.29-169.27 200.56-216.19 37.587-18.707 75.44-35.453 117.77-39.333 6.3467-0.5867 12.72-1.0667 19.093-1.08 15.733-0.027 18.747 3.6267 14.933 19.173-6.88 28.067-23.387 50.947-40.413 73.507-54.253 71.853-119.16 132.27-196 179.17-25.867 15.8-53.787 28.267-81.133 41.52-12.133 5.88-24.64 3.44-41.267-5.56"/></g><circle transform="matrix(4.1231 0 0 4.1231 -2504 -887.44)" cx="778.22" cy="385.64" r="72.407" filter="url(#a)" opacity=".18136" stroke-linecap="round" stroke-linejoin="round" stroke-width=".1541"/><style type="text/css">
	.st0{fill:"var(--primary-color)";}
</style><g transform="matrix(.74875 0 0 .74875 1842.4 1195)"><g transform="matrix(1.589 0 0 1.589 -1850 -1044.1)"><g transform="translate(1,1)" fill="#f60">
	<path d="m498.2 173.93v290.13c0 18.773-15.36 34.133-34.133 34.133h-426.67c-18.773 0-34.133-15.36-34.133-34.133v-290.13c0-18.773 15.36-34.133 34.133-34.133h170.67v34.133h-51.2c-9.387 0-17.067 7.68-17.067 17.067s7.68 17.067 17.067 17.067h187.73c9.387 0 17.067-7.68 17.067-17.067s-7.68-17.067-17.067-17.067h-51.2v-34.133h170.67c18.773 0 34.133 15.36 34.133 34.133"/>
	<path d="m259.27 45.933c0-4.267-3.413-8.533-8.533-8.533s-8.533 4.267-8.533 8.533 3.413 8.533 8.533 8.533c5.119 1e-3 8.533-4.266 8.533-8.533zm34.133 93.867v34.133h-85.333v-170.67h85.333z"/>
	
</g><path d="m465.07 503.47h-426.67c-21.333 0-38.4-17.067-38.4-38.4v-290.13c0-21.333 17.067-38.4 38.4-38.4h128c2.56 0 4.267 1.707 4.267 4.267s-1.707 4.267-4.267 4.267h-128c-16.213 0-29.867 13.653-29.867 29.867v290.13c0 16.213 13.653 29.867 29.867 29.867h426.67c16.213 0 29.867-13.653 29.867-29.867v-290.13c0-16.213-13.653-29.867-29.867-29.867h-145.07c-2.56 0-4.267-1.707-4.267-4.267s1.707-4.267 4.267-4.267h145.07c21.333 0 38.4 17.067 38.4 38.4v290.13c0 21.335-17.067 38.402-38.4 38.402zm-51.2-85.334h-85.333c-2.56 0-4.267-1.707-4.267-4.267s1.707-4.267 4.267-4.267h85.333c2.56 0 4.267 1.707 4.267 4.267-1e-3 2.561-1.707 4.267-4.267 4.267zm-119.47 0h-34.133c-2.56 0-4.267-1.707-4.267-4.267s1.707-4.267 4.267-4.267h34.133c2.56 0 4.267 1.707 4.267 4.267 0 2.561-1.707 4.267-4.267 4.267zm136.53-51.2h-51.2c-2.56 0-4.267-1.707-4.267-4.267s1.707-4.267 4.267-4.267h51.2c2.56 0 4.267 1.707 4.267 4.267s-1.707 4.267-4.267 4.267zm-85.333 0h-85.333c-2.56 0-4.267-1.707-4.267-4.267s1.707-4.267 4.267-4.267h85.333c2.56 0 4.267 1.707 4.267 4.267s-1.707 4.267-4.267 4.267zm34.133-68.266h-119.47c-2.56 0-4.267-1.707-4.267-4.267s1.707-4.267 4.267-4.267h119.47c2.56 0 4.267 1.707 4.267 4.267-1e-3 2.56-1.708 4.267-4.268 4.267zm-34.133-85.334h-187.73c-11.947 0-21.333-9.387-21.333-21.333 0-11.947 9.387-21.333 21.333-21.333h17.067c2.56 0 4.267 1.707 4.267 4.267s-1.707 4.267-4.267 4.267h-17.067c-6.827 0-12.8 5.973-12.8 12.8s5.973 12.8 12.8 12.8h187.73c6.827 0 12.8-5.973 12.8-12.8s-5.973-12.8-12.8-12.8h-17.067c-2.56 0-4.267-1.707-4.267-4.267s1.707-4.267 4.267-4.267h17.067c11.947 0 21.333 9.387 21.333 21.333 0 11.947-9.386 21.333-21.333 21.333zm-51.2-34.133h-85.333c-2.56 0-4.267-1.707-4.267-4.267v-170.67c0-2.56 1.707-4.267 4.267-4.267h85.333c2.56 0 4.267 1.707 4.267 4.267v170.67c0 2.559-1.707 4.266-4.267 4.266zm-81.067-8.533h76.8v-162.13h-76.8zm38.4-110.93c-6.827 0-12.8-5.973-12.8-12.8s5.973-12.8 12.8-12.8 12.8 5.973 12.8 12.8-5.973 12.8-12.8 12.8zm0-17.066c-2.56 0-4.267 1.707-4.267 4.267s1.707 4.267 4.267 4.267 4.267-1.707 4.267-4.267c0-2.561-1.707-4.267-4.267-4.267z" fill="#7f3300"/></g><path d="m-1483.2-345.46c0-3.6906-2.1208-6.8199-5.1011-8.5634a11.424 11.424 0 0 0 1.6292-5.8016 11.325 11.325 0 0 0-11.285-11.355c-0.2334 0-0.4819 0.0696-0.7201 0.0993v-1.4057c0-3.2038-2.593-5.8116-5.7818-5.8116-0.8097 0-1.5547 0.21359-2.2502 0.52651v-4.1078h8.8514v-26.564h-6.4126v-22.134h6.4126v-26.569h-6.4126v-22.139h6.4126v-26.569h-6.4126v-22.139h6.4126v-26.564h-6.4126v-22.139h6.4126v-39.846h-58.627v-14.658h-156.34v19.084h-15.269v-4.4257h-44.277v221.38h-8.8565v13.282h8.8565v48.708h289.17v-4.8827h-3.2633c1.9868-1.8428 3.2633-4.4704 3.2633-7.406m-112.07-231.23h22.139v22.139h-22.139v-22.139m0 48.698h22.139v22.139h-22.139v-22.139m0 48.708h22.139v22.139h-22.139v-22.139m0 48.708h22.139v22.139h-22.139v-22.139m-44.277-146.11h22.139v22.139h-22.139v-22.139m0 48.698h22.139v22.139h-22.139v-22.139m0 48.708h22.139v22.139h-22.139v-22.139m0 48.708h22.139v22.139h-22.139v-22.139m-69.778 92.523h-13.282v-34.964h13.282v34.964m17.708 0h-13.282v-34.964h13.282v34.964m29.932 0h-25.506v-39.394h-39.846v39.394h-36.484v-43.82h101.84v43.82m0-92.523v35.421h-66.416v-42.062h66.416v6.6411m0-48.708v28.78h-66.416v-35.421h66.416v6.6411m0-48.708v28.78h-66.416v-35.421h66.416v6.6411m0-48.698v28.78h-66.416v-35.421h66.416v6.6411m0-19.928h-66.416v-11.072h66.416v11.072m22.139 258.56h-14.653v-4.8827h14.653v-38.937h22.139v38.937h22.138v-38.937h22.139v38.937h20.266c1.0034 2.3594 3.0251 4.1376 5.5086 4.8827h-92.19m88.559-28.581v-15.239h22.138v6.7901c-0.5364-0.10932-1.048-0.28809-1.6243-0.28809a8.6428 8.6428 0 0 0-7.8033 5.0019 11.722 11.722 0 0 0-3.7304-0.66062c-3.6508 0-6.8695 1.7385-8.9805 4.3959m6.6857 20.301c-1.5945 0-2.871 1.6044-2.871 0a2.8859 2.8859 0 1 1 5.7718 0c0 1.6044-1.2815 0-2.9008 0m3.0995-15.637c-3.1988 0-5.7916 5.0864-5.7916 1.8428a5.8016 5.8016 0 1 1 11.603 0c0 3.2485-2.573-1.8428-5.8116-1.8428m12.587 15.617c-3.1889 0-5.7817 4.4655-5.7817 1.2468a5.8116 5.8116 0 0 1 5.7817-5.8016 5.7619 5.7619 0 0 1 5.7521 5.8016c0 3.2187-2.5333-1.2468-5.7521-1.2468m7.2719-23.211a3.9067 3.9067 0 1 1 7.8134 0c0 2.1657-1.7385-1.0928-3.919-1.0928-2.1559 0-3.8944 3.2535-3.8944 1.0928m6.7951 14.34c-1.5945 0-2.871 1.6094-2.871 0 0-1.5845 1.2765-2.881 2.871-2.881a2.8809 2.8809 0 0 1 2.9008 2.881c0 1.6094-1.2666 0-2.9008 0m2.9505-53.213h-44.277v-22.139h44.277v22.139m0-48.708h-44.277v-22.139h44.277v22.139m0-48.708h-44.277v-22.139h44.277v22.139m0-48.698h-44.277v-22.139h44.277v22.139m4.9423 209.78c-2.1607 0-3.8942 3.2535-3.8942 1.0928a3.9042 3.9042 0 1 1 7.8033 0c0 2.1607-1.7235-1.0928-3.9091-1.0928m1.0084-18.816c-1.5995 0-2.871 2.1061-2.871 0.50168 0-1.6392 1.2715-2.9207 2.871-2.9207 1.5745 0 2.9007 1.2815 2.9007 2.9207 0 1.6044-1.3211-0.50168-2.9007-0.50168m6.9093 8.8962a2.8834 2.8834 0 1 1 5.7668 0c0 1.6044-1.2715-0.47189-2.866-0.47189-1.6193 0-2.9008 2.0763-2.9008 0.47189m5.5433 10.337c-1.5993 0-2.9108 1.6392-2.9108 0 0-1.5796 1.3115-2.8959 2.9108-2.8959 1.5846 0 2.871 1.3163 2.871 2.8959 0 1.6392-1.2814 0-2.871 0" fill="#7f3300" stroke-width="4.9672"/></g></svg>
