<svg fill="none" viewBox="0 0 3 3" xmlns="http://www.w3.org/2000/svg"><path d="m2.0001 2.4111c.066554.034432.15225.056155.26135.056155.21732 0 .34198-.085722.40759-.1865.031079-.047738.046366-.095007.053975-.13007.00383-.017667.00581-.032662.00685-.043705.0005173-.00555.000776-.010141.0009238-.013634.0000821-.00175.000129-.00322.0001527-.00442l.0000232-.00156v-.11836c0-.023318-.00926-.045686-.025746-.062169-.016493-.016495-.038851-.025756-.062181-.025756h-.57666c.012908.027222.019789.057222.019789.087926v.17727l-.0000115.00156-.0000469.00217c-.0000351.00204-.0001057.00438-.0002228.00703-.0002343.0053-.0006283.011829-.00133.019414-.0014.015088-.00404.034819-.009.057703-.00981.045182-.029578.10662-.070294.16918-.0017.0026-.00344.00519-.00517.00776zm-1.0665-.53002c-.012661.026647-.019745.05646-.019745.087926l.0000011.1768.00000444.00108.0000388.00251.00001183.0005987c.00004213.00203.00011382.00438.00022875.00702.00022838.00529.00062823.011806.00133.019379.001404.015076.004017.034784.008965.057632.009763.045135.029453.10653.070037.16906.0017.00264.00344.00526.00523.00788-.066758.034514-.15275.056284-.26228.056284-.21685 0-.34122-.085816-.40663-.1866-.030979-.047738-.046213-.094983-.053793-.13002-.003817-.017644-.005791-.032638-.006814-.04367-.00051737-.00555-.00077605-.010129-.00096082-.013623-.00009867-.00227-.0001748-.00686-.0001748-.00686v-.11747c0-.048559.039366-.087926.087926-.087926zm.097491.087926c0-.048558.039366-.087926.087926-.087926h.76202c.023318 0 .045686.00926.062169.025756.016497.016483.025757.038852.025757.062169v.17585.0005041l-.0000118.0006208-.0000233.00156c-.0000236.0012-.0000706.00267-.0001408.00442-.0001526.00349-.0004434.00809-.0009608.013634-.00103.011043-.00299.026038-.00684.043705-.00761.035065-.022897.082334-.053975.13007-.065592.10078-.19026.1865-.40758.1865-.21685 0-.34122-.085816-.40663-.1866-.030979-.047738-.046213-.094983-.053793-.13002-.00382-.017644-.00579-.032638-.00681-.04367-.0005173-.00555-.000776-.010129-.0009608-.013623-.000075-.00175-.0001186-.00322-.0001441-.00441l-.0000248-.00157-.0000048-.0006097-.0000011-.0002697zm.93788-.5469c0-.16188.13122-.29309.29309-.29309s.29309.13121.29309.29309c0 .16187-.13122.29309-.29309.29309s-.29309-.13122-.29309-.29309zm-.38101-.65481c0-.16187.13122-.29309.29309-.29309s.29309.13122.29309.29309-.13122.29309-.29309.29309-.29309-.13122-.29309-.29309zm-.76202 0c0-.16187.13122-.29309.29309-.29309s.29309.13122.29309.29309-.13122.29309-.29309.29309-.29309-.13122-.29309-.29309zm-.38101.65481c0-.16188.13122-.29309.29309-.29309s.29309.13121.29309.29309c0 .16187-.13122.29309-.29309.29309s-.29309-.13122-.29309-.29309zm.76202-.00996c0-.16187.13122-.29309.29309-.29309s.29309.13122.29309.29309-.13122.29309-.29309.29309-.29309-.13122-.29309-.29309z" fill="#f60" stroke-width=".11723"/></svg>
