<?xml version="1.0" encoding="UTF-8"?>
<svg width="1080" height="1080" version="1.1" viewBox="0 0 1080 1080" xml:space="preserve" xmlns="http://www.w3.org/2000/svg"><defs><filter id="a-3" x="-.24627" y="-.24627" width="1.4925" height="1.4925" color-interpolation-filters="sRGB"><feGaussianBlur stdDeviation="14.859607"/></filter></defs><filter id="a" x="-.29171" y="-.29171" width="1.5834" height="1.5834" color-interpolation-filters="sRGB"><feGaussianBlur stdDeviation="17.601684"/></filter><g transform="matrix(1.1076 -1.4229 1.4229 1.1076 -14543 2845.6)" fill="#f60"><path d="m6099.6 5893.6c85.52-24.253 147.45-77.773 202.17-142.77-3.9466 7.7333-7.2266 15.907-11.92 23.16-48.493 74.68-114.01 127.35-198.57 157.12-41.96 14.773-83.76 29.12-128.12 33.813-16.133 1.7067-32.613 0.28-52.027 0.28 15.787-25.093 32.92-43.187 56.307-55.88-10.747 3.1467-21.493 6.2934-33.147 9.7067 1.1467-19 6.0134-33.12 24.027-42.96 43.107-23.533 84.947-49.413 127.52-73.947 23.413-13.493 47.333-26.12 70.96-39.227 13.973-7.7467 28.24-15.067 41.533-23.84 4.8267-3.2 7.88-9.76 10.587-15.347 6.5733-13.52 7.3733-13.733 19.08-5.16 1.8667 1.36 7.68 0.4533 9.2133-1.4133 4.4667-5.4534 7.1067-12.4 11.627-17.8 2.6133-3.1067 8.1333-6.7734 11.187-5.9334 8.1866 2.24 13.24-1.2266 17.573-6.6266 11.947-14.88 23.533-30.04 35.28-45.08 1.0667-1.36 2.32-2.5867 4.7067-5.2267 5.7333 18.373 5.2133 35.56 0.5333 52.013-10.307 36.253-31.16 66.133-58.307 92.12-46.773 44.76-98.2 82.68-157.07 110.09-0.6534 0.3066-1.1067 1-3.1467 2.9066"/><path d="m6157.6 5617.4c-33.733 12.627-61.293 37.507-80.467 66.6 25.813-21.36 54.48-45.08 80.467-66.6zm-202.37 147.75c31.093-32.347 62.173-64.68 93.267-97.027 0.5866 0.6267 1.16 1.2533 1.7466 1.8933-10.04 16.827-20.08 33.653-28.08 47.067 27.48-27.387 56.84-57.733 87.413-86.8 22.68-21.56 47.8-40.013 79.133-47.72 3.04-0.7467 5.9333-2.12 11.2-4.04-28.28-1.9867-67.787 15.28-122.39 47.547-56.067 33.133-93.2 82.08-122.29 139.08zm-53.773 88.907c7.6933-15.333 25.373-25.36 24.667-45.667-8.2666 9.1866-16.333 18.16-24.413 27.133-1.16-0.56-2.3333-1.1333-3.5067-1.6933 3.1734-10.36 5.16-21.267 9.7067-30.987 43.693-93.453 106.29-169.27 200.56-216.19 37.587-18.707 75.44-35.453 117.77-39.333 6.3467-0.5867 12.72-1.0667 19.093-1.08 15.733-0.027 18.747 3.6267 14.933 19.173-6.88 28.067-23.387 50.947-40.413 73.507-54.253 71.853-119.16 132.27-196 179.17-25.867 15.8-53.787 28.267-81.133 41.52-12.133 5.88-24.64 3.44-41.267-5.56"/></g><circle transform="matrix(3.6622 0 0 2.7954 -2170.8 -293.89)" cx="778.22" cy="385.64" r="72.407" filter="url(#a-3)" opacity=".33029" stroke-linecap="round" stroke-linejoin="round" stroke-width=".1541" style="mix-blend-mode:normal"/><g transform="matrix(.82067 0 0 .82067 122.83 -562.56)" fill="#f60" stroke-width="22.222"><path class="clr-i-solid--alerted clr-i-solid-path-2--alerted" d="m1075.5 1640.8h-137.11a419.33 419.33 0 0 1-36 56 51.778 51.778 0 0 1 7.3333 26.444 488.89 488.89 0 0 0 111.11 10 264 264 0 0 1-13.556 34h-12.444a386.89 386.89 0 0 1-96-12.444 50.889 50.889 0 0 1-66.667 13.778 409.56 409.56 0 0 1-155.56 77.778 52 52 0 0 1-34.889 39.778l-6.4444 1.3334a265.11 265.11 0 0 1-75.333-62.222h14.667a51.778 51.778 0 0 1 97.111-12.889 376.44 376.44 0 0 0 138.22-69.333 51.556 51.556 0 0 1-4-26c-9.3333-5.3333-18.667-10.889-27.778-16.889a389.56 389.56 0 0 1-118.89-124.44 51.333 51.333 0 0 1-50.667-14 606.89 606.89 0 0 0-111.11 105.33v-12.667a266.67 266.67 0 0 1 3.1111-38.444 416.67 416.67 0 0 1 93.333-84.444 50.667 50.667 0 0 1 24.444-50c-2.6667-9.5556-5.3333-19.111-7.3333-28.889 0-3.1111 0-6.4444-2.4444-14.222a266.67 266.67 0 0 1 30.444-19.333c2.2222 13.111 3.1111 20 4.6667 26.889 1.5556 6.8889 4.4444 18.889 7.1111 28.222h5.5556a51.778 51.778 0 0 1 25.111 14 413.11 413.11 0 0 1 142-22.222l58-100.67a311.11 311.11 0 0 0-427.78 288.89c0 10 0 19.778 1.5556 29.556a311.11 311.11 0 0 0 620.89-29.556c0-4.4445-0.4445-8.8889-0.6667-13.333z"/><path class="clr-i-solid--alerted clr-i-solid-path-3--alerted" d="m687.29 1557.3a355.56 355.56 0 0 0 109.56 116.22c7.5556 5.1111 15.333 9.5555 22.222 14a50.667 50.667 0 0 1 57.333-12.667 384.22 384.22 0 0 0 22.222-34.222h-35.556a81.778 81.778 0 0 1-70.444-122.22l12.444-19.778a379.56 379.56 0 0 0-107.56 19.556 50 50 0 0 1-10.444 39.333z"/><path class="clr-i-solid--alerted clr-i-solid-path-4--alerted clr-i-alert" d="m967.07 1324-127.11 219.11a28.444 28.444 0 0 0 24.444 44.444h254.44a28.444 28.444 0 0 0 24.444-44.444l-127.11-219.11a28.444 28.444 0 0 0-49.111 0z"/></g></svg>
