<svg viewBox="0 0 100 100" xmlns="http://www.w3.org/2000/svg"><g fill="#f60" transform="matrix(.20718 0 0 .20718 11.639 11.639)"><path d="m154.66 134.16h-67.667c-8.284 0-15 6.716-15 15s6.716 15 15 15h67.667c8.284 0 15-6.716 15-15s-6.716-15-15-15z"/><path d="m154.66 224.16h-67.667c-8.284 0-15 6.716-15 15s6.716 15 15 15h67.667c8.284 0 15-6.716 15-15s-6.716-15-15-15z"/><path d="m271.99 152.88c-13.035 0-23.636 10.602-23.636 23.637v15.635h47.272v-15.635c0-13.035-10.601-23.637-23.636-23.637z"/><path d="m343.36 177.65v-1.131c0-31.924-21.069-59.017-50.031-68.109v-34.703c0-3.934-1.56-7.706-4.344-10.484l-58.876-58.88c-2.784-2.778-6.55-4.339-10.484-4.339h-177.18c-16.053 0-29.112 13.06-29.112 29.112v312.1c0 16.054 13.059 29.113 29.111 29.113h221.78c16.052 0 29.111-13.06 29.111-29.113v-11.508h22.758c22.557 0 40.908-18.352 40.908-40.91v-80.727c.001-11.914-5.237-22.854-13.634-30.416zm-81.644 160.26h-216.77v-305.49h154.09v43.577c0 10.554 8.554 19.106 19.105 19.106h43.58v10.8c-34.496 5-61.086 34.757-61.086 70.619v1.131c-8.395 7.563-13.635 18.502-13.635 30.416v80.727c0 22.558 18.352 40.91 40.908 40.91h33.813v8.206zm70.279-118.18h-27.044c-6.404 0-11.592 5.191-11.592 11.59 0 6.4 5.188 11.59 11.592 11.59h27.044v16.561h-27.044c-6.404 0-11.592 5.189-11.592 11.594 0 6.402 5.188 11.592 11.592 11.592h27.044v6.133c0 8.789-7.121 15.91-15.908 15.91h-88.184c-8.787 0-15.908-7.121-15.908-15.91v-80.727c0-8.016 5.925-14.643 13.635-15.748v-15.799c0-25.57 20.801-46.369 46.365-46.369s46.365 20.799 46.365 46.369v15.799c7.71 1.105 13.635 7.732 13.635 15.748z"/></g></svg>
