<?xml version="1.0" encoding="UTF-8"?>
<!-- Created with Inkscape (http://www.inkscape.org/) -->
<svg width="1e3" height="1e3" version="1.1" viewBox="0 0 1e3 1e3" xmlns="http://www.w3.org/2000/svg">
 <g transform="matrix(.54985 0 0 .54985 -154.21 -2495.1)" fill="#f60">
  <path d="m1342.8 5067.8c1.64-13.187 37.64-36.187 60.973-41.227-19.827 13.387-39.76 26.867-60.973 41.227zm-171.25-128.37c-57.267 12.72-113.69 29.227-170.47 44.053-5.9 1.52-11.856 3.2134-17.892 3.88-35.893 4.1067-66.621 19.853-94.44 41.987-5.22 4.16-9.4347 9.6267-14.112 14.467-0.84266-0.6267-1.7133-1.2667-2.584-1.92 10.959-17.813 24.745-32.96 43.427-43.52 23.548-13.293 48.811-21.8 74.915-28.68 79.837-21.08 159.46-42.96 240.93-57 66.621-11.467 133.19-23.387 200.06-33.173 49.4-7.2533 99.227-11.387 148.88-16.96 32.387-3.6533 64.747-7.4533 97.12-11.04 4.5467-0.4933 9.1734-0.067 13.853 1.5734-81.507 21.293-165.07 28.573-248.55 38.307 0.8667 0.3867 1.7467 0.7334 2.5867 1.12-3.72-0.76-7.6134-1.1466-11.56-1.1466-7.64 0-14.96 1.44-21.667 4.1066 0.7333-0.56 1.4933-1.1066 2.2533-1.6533-26.973 5.3067-52.693 10.68-78.533 15.413-54.736 10.093-109.94 18.12-164.21 30.187zm132.05-2.04c-16.777 1.3067-33.773 1.4667-50.36 4.16-41.823 6.7467-82.992 16.013-123.45 29.48-58.709 19.52-111.92 49.947-165.98 78.72-31.353 16.693-54.276 42.64-68.824 75.427-0.816 1.8533-1.8213 3.6266-3.1813 5.12 7.504-32.04 26.24-55.96 52.833-74.867 33.775-24.013 71.272-40.627 108.93-57.067 10.008-4.3866 19.552-9.8 29.315-14.72-0.3813-1.1466-0.7626-2.2533-1.1426-3.4-11.367 2.3467-23.495 2.9067-33.964 7.3467-30.564 12.973-60.856 26.707-90.523 41.627-33.12 16.64-60.149 40.413-78.179 73.72 6.6627-23.027 19.307-42.387 38.995-56.173 42.719-29.973 87.396-57.707 138.68-69.133 72.795-16.173 145.02-35.92 219.58-43.147 9.028-0.8666 18.219 0.16 27.328 0.32-0.027 0.84-0.027 1.72-0.055 2.5867zm-435.35 143.47c21.836-52.32 66.105-74.747 116.27-89.24-41.332 26.293-91.584 40.813-116.27 89.24zm565.46-90.547c-21.773 0-39.427-17.653-39.427-39.427 0-21.76 17.653-39.44 39.427-39.44 21.787 0 39.427 17.68 39.427 39.44 0 21.773-17.64 39.427-39.427 39.427zm-464.91 167.67c1.0333 0.16 2.04 0.32 3.0467 0.4933-1.3053 12.88-3.0187 25.693-9.464 37.2 2.148-12.573 4.2973-25.133 6.4173-37.693zm173.52-152.99c-28.227 9.76-50.116 28.587-70.783 49.107 18.789-23.187 39.211-44.08 70.783-49.107zm17.375 115.97c-4.3227-15.173-7.804-27.293-11.529-40.373 11.584 10.893 12.345 24 11.529 40.373zm784.39-302.71c-12.2 22.28-26.947 42.4-47.667 57.547-33.2 24.253-69.827 42.467-108.33 55.827-60.907 21.173-122.59 40.293-184.23 59.28-81.747 25.173-161.8 53.947-233.53 101.95-6.5467 4.3733-13.707 7.9066-20.587 11.827-0.7866-0.8266-1.5466-1.6666-2.3066-2.48 4.6533-5.9333 8.7866-12.4 14.053-17.733 27.493-27.813 62.053-44.64 96.707-61.4 18.92-9.16 37.573-18.947 55.987-29.147 21.973-12.133 42.773-26.627 65.427-37.227 70.12-32.827 141.17-63.413 207.31-104.33 39.627-24.507 71.027-55.667 91.587-97.24 6.36-12.84 9.76-27.147 14.52-40.76-0.84-0.3333-1.68-0.68-2.56-1.0133-10.24 39.053-33.547 67.733-68.733 86.907-27.68 15.067-57.133 25.133-88.4 29.453-13.933 1.9067-27.907 3.4267-44.867 5.4933 5.3734-10.333 9.16-17.627 14.6-28.04-27.653 10.44-50.12 27-80.027 30.133 5.0266-13.053 9.52-24.64 15.027-38.973-6.3066 3.6-10.053 5.5734-13.693 7.8134-16.787 10.253-33.293 21.067-50.453 30.667-6.3067 3.5334-14.16 4.2667-21.307 6.3067-0.5467-0.92-1.0667-1.84-1.5867-2.7733 4.7067-10.653 9.44-21.293 14.173-31.947-30.947 8.92-50.907 37.693-86.387 39.48 5.4267-13.027 10.027-23.987 14.627-34.933-0.9334-0.4667-1.8267-0.9334-2.72-1.3867-25.92 15.907-49.573 35.92-78.64 46.107-1.0134-0.8134-2.04-1.6267-3.0534-2.44 4.1334-11.373 8.24-22.707 12.92-35.573-29.173 15.173-50.6 40.933-85.787 47.947 5.0533-13.413 9.0266-23.88 14.053-37.147-29.801 13.947-49 39.84-82.337 46.933 3.6706-11.96 6.7973-22.24 9.952-32.52-0.6254-0.7067-1.2507-1.3867-1.876-2.0934-23.521 16.453-43.916 38.147-75.132 46.747 4.3493-13.133 8.184-24.72 11.991-36.28-24.663 19.96-50.06 37.253-78.477 49.733-0.924-0.5733-1.8213-1.1466-2.7467-1.7066 4.488-11.893 8.9747-23.773 12.727-33.64-17.648 11.64-36.275 23.907-54.82 36.267-2.2293 1.5067-3.996 3.7067-6.2 5.2534-7.1787 5.0266-13.895 11.147-21.78 14.547-13.379 5.7067-27.492 9.76-41.333 14.36-41.549 13.787-83.181 27.333-124.62 41.413-5.8733 2.0133-12.753 5.36-15.88 10.2-9.3547 14.493-19.605 29.2-24.963 45.32-20.504 61.493-15.065 121.17 17.565 177.73 3.9707 6.9067 8.9467 13.253 13.597 20.04 8.9733-10.187 16.968-19.253 24.935-28.28 0.68 0.6267 1.3867 1.2533 2.0947 1.88-7.804 10.147-15.609 20.293-24.447 31.76 4.324 4.4267 8.62 8.84 13.732 14.12 5.656-6.48 9.708-10.933 13.569-15.56 3.6173-4.3467 7.0427-8.84 10.577-13.267 0.844 0.68 1.6867 1.3334 2.556 2.0134-6.9333 11.013-13.84 22.027-20.72 32.947 9.5987 7.8667 12.101 8.1867 20.503 1.3867 3.916-3.1733 7.804-6.7333 10.496-10.92 6.4187-9.96 12.101-20.347 18.519-31.36-3.888 22.053-17.811 38.12-29.096 55.427 15.255 9.3733 21.7 8.2933 32.359-4.0267 18.355-21.267 30.075-45.907 37.444-72.773 5.956-21.72 11.829-43.453 9.9534-66.347 8.5373 28.253-3.508 54.227-10.116 80.44-6.8253 27-20.285 51.333-38.695 72.867 14.439 6.1733 23.576 5.6533 28.877-1.5734 17.784-24.387 31.544-50.747 38.723-80.24 1.768-7.32 3.888-14.547 5.8467-21.813 1.332 0.3867 2.692 0.76 4.052 1.1467-5.276 18.787-9.0827 38.147-16.261 56.2-7.152 18.053-17.703 34.787-27.329 53.187 9.1107 0.8134 19.117 5.4134 25.045-4.3733 15.989-26.4 31.733-53.08 37.444-84.16 1.224-6.7467 3.208-13.32 4.8667-19.96 0.9787 0.24 1.9307 0.4933 2.9107 0.7333-0.4094 19.88-5.6574 38.947-13.569 57.027-7.9413 18.08-17.539 35.427-26.731 53.733 9.708-0.2 20.421 2.3067 26.867-8.7066 17.131-29.427 32.604-59.547 39.293-93.373 0.76-3.9733 2.6373-7.7066 3.996-11.533 2.0666 1.76 2.5573 3.04 2.3933 4.2133-0.8707 5.7067-1.7133 11.427-2.9373 17.053-7.096 32.547-21.725 61.773-40.652 89.973 13.216 1.12 23.984-1.7333 29.667-13.08 12.264-24.467 24.065-49.213 35.16-74.253 3.644-8.24 4.6774-17.68 6.4987-26.653 1.6867-8.4533 2.8013-17.027 4.188-25.507 1.6867 49.867-14.739 94.107-43.752 135.39 16.288-0.8666 27.409-7.4133 34.425-19.707 17.567-30.787 33.229-62.36 37.579-98.28 1.0613-8.64 3.0733-17.187 4.6507-25.747 2.6653 48.293-14.493 90.76-38.151 131.67 13.515-3.08 25.316-9.4667 31.027-21.053 11.339-23.027 23.467-46.333 29.857-70.947 7.124-27.547 8.2387-56.613 11.04-77.96 8.7013 50.413-6.7707 103.01-35.921 154.63 14.303-4.2266 24.963-10.907 30.347-22.053 10.279-21.293 20.911-42.893 27.22-65.547 5.9547-21.333 6.4987-44.187 9.3267-65.507 9.136 46.613-9.028 89.067-27.383 134.17 27.437-14.813 37.471-38.747 44.568-63.44 6.9614-24.227 10.687-49.347 14.684-68.693 5.14 31.253-5.5746 65.76-16.424 100.81 15.961-18.827 29.939-38.787 44.921-57.92 15.201-19.427 22.761-41.507 25.888-65.48 4.6493-35.707-9.7627-63.987-40.763-82.067-20.284-11.827-42.337-16.48-65.233-17.76-25.371-1.44-51.448-5.6533-75.732 3.8267-23.303 9.12-45.356 21.387-67.763 32.64-16.071 8.0533-31.38 17.787-47.859 24.853-41.551 17.867-76.411 42.72-95.88 85.573 8.2667-29.227 26.295-51.613 51.883-67.387 18.436-11.333 38.124-20.693 57.376-30.667 37.661-19.533 75.349-39.08 113.26-58.173 6.2-3.0933 13.651-5.32 20.504-5.32 23.739 0 47.585-0.1067 71.135 2.2 26.404 2.5867 51.148 11.693 71.733 29.067 28.389 23.96 31.511 56.48 27.791 90.36-4.16 37.8-23.087 69.093-45.737 98.52-2.9373 3.8-5.4386 7.96-8.1306 11.96 0.5986 0.68 1.196 1.3333 1.7946 2.0133 4.7854-2.1467 10.279-3.4267 14.223-6.6 16.913-13.653 34.505-26.733 49.677-42.16 31.893-32.373 67-60.147 109.83-75.72 78.84-28.64 158.4-55.2 237.4-83.373 53.187-18.987 104.85-41.64 153.77-69.947 31.587-18.293 61.64-38.88 80.92-71.347 7.0667-11.933 13.76-24.12 20.613-36.2-0.84-0.48-1.6667-0.9733-2.5067-1.4666"/>
  <path d="m553.83 5285c-18.763-16.013-37.525-32.04-56.261-48.053 1.3867-1.5733 2.7747-3.12 4.188-4.7066 18.247 16.533 36.52 33.093 54.793 49.627-0.89733 1.04-1.8227 2.0667-2.72 3.1334zm-70.645-26.68c1.332-1.7334 2.6653-3.48 3.9973-5.1867 22.461 14.68 42.773 32.053 59.96 53.293-21.32-16.04-42.639-32.067-63.957-48.107zm-12.047 17.347c25.697 12.867 48.701 29.587 69.177 49.707-22.895-16.907-50.143-27.6-69.177-49.707zm-15.336 24.96c0.97867-1.5466 1.9307-3.0666 2.8827-4.5866 25.86 10.08 46.907 27.92 67.383 46.96-23.413-14.12-46.825-28.253-70.265-42.373zm-9.2187 21.027c30.103 8.68 53.543 28.2 78.043 45.987-26.867-13.96-54.44-26.733-78.043-45.987zm-11.312 22.573c13.08 0.92 58.083 25.64 82.637 44.947-12.617-2.1467-79.048-37.773-82.637-44.947zm-9 24.093c30.564 8.72 57.403 24.88 83.616 42.12-28.171-13.52-58.655-22.36-83.616-42.12zm-8.784 28.68c11.421-4.7067 75.677 23.413 90.741 38.347-30.237-12.787-60.503-25.56-90.741-38.347zm308.12 85.853c-30.428 2.44-53.677-10.533-78.151-23.667 26.051 7.8667 50.932 15.427 78.151 23.667zm-89.627 32c19.252 3.4533 32.687 1.6533 43.073-5.1067-36.329-1.9333-82.203-23.093-93.677-43.92 2.12 1.2534 3.5893 1.9334 4.8667 2.9067 27.003 20.72 57.295 33.4 91.149 37.44 10.959 1.3067 21.781 1.6667 31.163-4.1867-20.639-5.6266-41.143-9.8666-60.639-16.88-19.824-7.1466-37.799-18.387-52.753-33.64 44.621 27.68 67.789 36.653 107.68 42.507 9.3547 1.3867 15.608-1.2 20.993-8.4533 12.317-16.627 15.907-35.493 15.852-55.2-1.332-0.7734-1.876-1.2267-2.5013-1.4534-0.952-0.32-1.9587-0.5333-2.964-0.76-53.025-11.04-93.76-38.147-116.36-89.027-24.8-55.907-66.024-96.987-117.04-128.35-47.777 61.893-81.333 131.48-100.1 208 56.941 11.387 111.98 28 158.59 65.907 20.856 17 46.227 25.48 72.657 30.213"/>
  <path d="m561.6 5179.9c12.999 17.107 25.371 34.733 33.773 46.373-8.648-7.8133-22.297-20.04-35.813-32.387-2.256-2.04-4.7853-4.2933-5.8187-6.9866-1.6587-4.2-2.1747-8.84-3.1813-13.307 3.752 2.04 8.6747 3.1867 11.04 6.3067zm8.592-24.88c2.3387 0.7333 5.6027 0.7066 6.8267 2.2933 4.976 6.4133 9.544 13.16 13.868 20.067 9.6253 15.413 18.98 31.027 28.471 46.52-0.708 0.6-1.388 1.1733-2.0667 1.7466-14.984-19.253-29.993-38.48-44.896-57.787-1.44-1.8534-2.8-4.0534-3.208-6.28-0.35333-2.0667 0.62533-4.3467 1.0053-6.56zm25.208-18.24c13.977 24.44 27.981 49 42.013 73.587-0.65333 0.5334-1.3333 1.1067-1.9853 1.6534-14.603-20.747-29.26-41.44-43.725-62.267-3.0453-4.3867-5.3853-9.2267 3.6973-12.973zm21.101-17.373c12.291 25.067 24.636 50.253 36.981 75.453-0.68 0.4133-1.3867 0.8133-2.0667 1.2266-13.379-21.347-26.865-42.613-40.055-64.067-3.072-5.0267-4.2133-10.36 5.14-12.613zm16.316-15.88c2.148 1.0534 5.492 1.6 6.2267 3.2534 10.66 23.987 20.965 48.133 31.38 72.227-1.088 0.5467-2.176 1.0934-3.236 1.64-12.264-23.093-24.609-46.12-36.52-69.4-0.896-1.7466 1.36-5.12 2.1493-7.72zm21.4-14.04c1.9853 1.2534 5.112 2.0667 5.8187 3.8667 9.0827 22.813 17.812 45.76 26.649 68.68-1.0333 0.4933-2.04 0.96-3.0733 1.4267-10.551-21.84-21.237-43.573-31.407-65.56-0.952-2.04 1.2507-5.5867 2.012-8.4134zm42.229 46.173c-8.7547-18.947-20.801-36.653-21.589-58.4 13.541 17.12 14.057 39.12 21.589 58.4zm26.377 236.2c-0.84267 0.5466-1.6587 1.1066-2.5013 1.6533-9.3813-14.44-18.736-28.88-28.117-43.32 0.78934-0.5067 1.604-1.0267 2.3933-1.5733 9.408 14.413 18.816 28.827 28.225 43.24zm79.211 14.293c-14.792 0-44.867-23.973-48.265-36.867 14.873 11.333 32.06 24.44 48.265 36.867zm-158.78-52.693c20.72 42.347 56.615 64.507 101.54 73.827 6.308 1.3067 12.889 1.5467 19.333 2.28-37.933-17.067-75.105-33.747-93.243-74.48 2.148 0.8 3.7253 2.3467 5.084 4.0534 12.727 15.933 24.745 32.853 43.236 42.587 15.853 8.32 32.577 14.907 48.92 22.293 8.0213 3.6533 14.901 1.8533 21.591-4.0134-33.555-11.24-59.905-29.24-70.673-66.36 1.8213 1.9067 2.6653 2.48 3.0187 3.2667 13.352 28.64 37.852 44.547 65.452 56.587 4.052 1.7733 10.577 2.28 14.032 0.1866 17.049-10.213 29.312-24.853 36.627-43.587 2.1493-5.52 1.4147-8.2934-4.268-11.04-8.8107-4.2934-17.567-9.08-25.371-14.92-30.565-22.96-48.975-54.8-59.796-90.307-16.696-54.853-30.945-110.41-46.255-165.67-1.2507-4.5333-2.6107-9.0266-4.0787-14.107-42.773 10.2-141.1 85.027-177.08 134.31 7.8867 6.3067 16.071 12.32 23.712 18.973 40.843 35.707 74.263 77.173 98.219 126.12"/>
  <path d="m412.53 5661.5c31.272-9.52 63.413-15.067 95.991-18.413 0.108 1.0933 0.18933 2.1467 0.29866 3.24-31.761 6.7067-63.521 13.427-95.283 20.147-0.32667-1.6534-0.68-3.32-1.0067-4.9734zm-5.084-21.867c-0.19066-1.0934-0.38133-2.2-0.544-3.32 31.299-10.027 63.684-13.507 96.832-12.293-32.087 5.2267-64.201 10.413-96.288 15.613zm-3.2627-66.24h72.005c0 0.8133-0.028 1.6533-0.028 2.48-24.065 1.2666-48.157 4.64-72.141 0.2133 0.0547-0.8933 0.10933-1.8 0.164-2.6933zm-2.856-26.707h79.565c-26.404 2.64-52.889 6.0667-79.484 3.92-0.0267-1.3067-0.0533-2.6133-0.0813-3.92zm70.619-47.333c-0.028 0.92-0.0813 1.84-0.10933 2.7733-22.787 3.8-63.603 0.7067-70.428-8.2667 25.208 1.96 47.859 3.72 70.537 5.4934zm-66.485-30.133c19.225 2.28 38.477 4.6 57.729 6.88-0.136 1.1467-0.272 2.2534-0.38133 3.3734-19.469-0.2267-38.857-1.36-57.811-6.2267 0.164-1.3333 0.3-2.6933 0.46267-4.0267zm76.193 56.427h-80.109c0.10933-0.9333 0.21733-1.8267 0.35333-2.7467h79.811c-0.028 0.92-0.028 1.8134-0.0547 2.7467zm13.677 72.547c-28.089 4.68-56.207 9.36-84.324 14.027-0.16267-1.0266-0.32534-2.04-0.48934-3.0666 27.736-7.0667 56.452-8 84.813-10.96zm166.77 27.493c-15.773 21.587-71.489 18.133-92.672-0.44 30.727 9.36 61.372 14.467 92.672 0.44zm30.863-32.853c-18.464 25.293-77.635 37.533-112.44 13.52 58.655 9.5466 58.655 9.5466 112.44-13.52zm-1.2773-13.813c-15.283 14.333-57.92 21.24-75.351 11.88 28.063 6.04 51.665-3.04 75.351-11.88zm-117.04 81.227c24.311 4.8933 47.343 0 67.6-12.4 17.404-10.627 32.876-24.747 48.023-38.64 8.2667-7.5867 13.133-18.707 12.019-30.4-1.468-15.72-4.46-31.307-6.852-47.067-48.892 13.693-92.156 5.3734-132.29-20.787-13.923-9.08-26.785-19.733-40.489-29.147-36.819-25.307-78.505-33.773-122.01-35.427-14.548 48.973-9.3 167.23 10.577 242.8 24.148-6.8266 47.615-13.44 71.055-20.147 30.265-8.6534 60.775-15.173 92.372-8.7867"/>
  <path d="m714.04 5717.9c-3.8893 20.707-62.163 51.213-92.428 46.973 37.635-5.6 65.425-25.293 92.428-46.973zm1.2227-19.68c-3.6973 13-40.924 37.173-60.285 38.32 19.66-12.493 40.789-25.92 60.285-38.32zm-7.124-13.32c0.68 1.0533 1.3867 2.12 2.0667 3.1467-9.3547 5.44-18.681 10.907-28.036 16.347-0.40667-0.6533-0.788-1.28-1.196-1.9333 9.0547-5.84 18.111-11.72 27.165-17.56zm-222.71 143.84c-1.0333-1.4933-2.04-2.96-3.0467-4.4533 20.831-18.107 45.792-29.747 69.313-43.68 0.54533 0.8533 1.116 1.6933 1.6587 2.5066-22.651 15.227-45.275 30.427-67.925 45.627zm-16.479-22.893c1.712-10.44 44.187-36.08 68.28-42.56-22.76 14.173-45.52 28.36-68.28 42.56zm59.197-66.56c-24.092 13.893-48.157 27.787-73.745 42.52 4.296-12.147 42.365-34.013 73.745-42.52zm-88.048 16.173c1.0867-1.7733 1.9027-4.08 3.48-4.8933 21.509-10.987 43.181-21.733 65.887-30.707-8.756 5.2267-17.321 10.747-26.268 15.613-11.828 6.4934-23.875 12.587-35.975 18.6-2.0667 1.0267-4.704 1-7.124 1.3867zm217.76 47.293c6.8253-1.7733 13.352-5.0933 19.633-8.4133 17.756-9.3467 27.6-24.88 35.132-45.52-30.292 25.973-64.419 41.8-77.852 36.387 2.04-0.6 3.6987-0.84 5.112-1.5734 20.803-10.64 42.067-20.453 62.163-32.28 15.907-9.3866 15.935-26.653 17.92-43.16 3.316-27.867-12.128-45.68-29.423-63.92-37.988 34.12-81.659 44.453-130.5 38.88-16.316-1.8533-33.909-3.1866-49.383 0.96-27.708 7.3334-54.303 18.973-81.277 28.987-2.9907 1.1067-5.548 3.3867-7.7227 4.7467 3.644 8.84 6.58 16.707 10.143 24.32 2.176 4.64 5.1933 8.92 7.8587 13.347-0.028 0.027-0.0813 0.027-0.10933 0.027 1.1427 3.8667 1.604 8.08 3.508 11.507 9.7347 17.4 19.607 34.747 29.967 51.8 6.2 10.227 13.433 19.827 19.307 28.36 27.436-17.653 53.107-34.147 78.776-50.653 0.57066 0.84 1.1427 1.7067 1.7133 2.5734-25.153 17.707-50.279 35.44-76.356 53.787 5.0293 6.48 9.708 12.507 14.684 18.907 21.835-24.973 49.571-39.707 76.764-55.28-1.4413 2.5467-3.536 4.16-5.6293 5.8133-19.197 15.147-38.749 29.827-57.403 45.627-11.095 9.3867-10.415 11.253 1.3587 22.293 9.708-8.8266 19.117-18.107 29.26-26.48 30.972-25.533 62.161-50.773 102.35-61.04"/>
  <path d="m1745.5 5707.5c25.747-71.72 41.627-145.56 44.04-221.96 0.8267-26.333-1.2-27.747-27.733-22.813-0.6267 0.12-1.16 0.64-1.6267 0.9067-1.6533 22.373-2.7867 44.693-5.0533 66.92-9.0134 88.653-30.867 173.6-72.973 252.81-35.987 67.68-80.427 129.01-134.73 183.12-50.693 50.493-104.8 96.853-166.32 133.8-93.915 56.4-195.14 93.253-303.2 111.27-72.336 12.053-145.12 16.227-218.33 11.36-15.476-1.0267-30.876-3.2134-46.311-4.8534-0.252 1-0.504 2.0134-0.756 3.0267 3.4627 1.88 6.724 4.56 10.427 5.5067 12.479 3.1733 24.991 6.6666 37.713 8.3866 61.279 8.3334 122.56 7.0134 183.96 0.24 88.447-9.7466 173.33-32.413 255.27-66.907 81.955-34.48 154.95-82.76 221.13-141.77 99.653-88.867 178.96-192.17 224.49-319.04"/>
  <path d="m855.91 5858.3c1.2227 0.5467 2.4747 1.0934 3.6973 1.6267-2.9093 13.493-12.725 23.96-20.095 35.52 5.4653-12.373 10.931-24.773 16.397-37.147zm20.693 9.28c-2.1493 16.52-12.509 29.467-22.08 42.8 6.008-14.773 12.019-29.507 18.028-44.28 1.36 0.4934 2.7187 0.9867 4.052 1.48zm11.42 9.64c1.4413 0.5467 2.856 1.0667 4.2973 1.5867-5.0853 19.733-17.349 36.213-28.091 53.4 7.94-18.32 15.853-36.653 23.793-54.987zm13.352 12.947c0.84266 0.36 1.6853 0.68 2.556 1.04-0.35334 22.68-12.427 40.573-25.915 57.947 7.804-19.667 15.581-39.32 23.359-58.987zm-74.616 134.23c-3.8347 14.733-7.94 29.427-11.393 44.24-1.9853 8.5334 1.6587 12.613 10.169 10.853 3.1-0.6534 6.6347-5.12 7.7227-8.5734 9.1093-28.707 21.319-55.12 42.067-78.067 23.793-26.32 34.943-58.627 33.501-94.627-0.59866-14.76-2.2027-28.8-19.879-33.88-4.3773-1.2533-7.9933-5.0933-12.155-7.3466-22.596-12.147-45.248-24.2-68.552-36.653-0.43466 2.56-0.70666 3.4534-0.70666 4.3467 0.78933 48.733-22.433 82.453-64.827 104.43-12.427 6.44-21.781 16.173-27.464 29.04-7.016 15.827-13.841 31.733-20.421 47.747-6.4453 15.667-5.684 17.267 9.7347 25.373 1.4413 0.7334 3.0453 1.1467 4.6227 1.7334 9.816-17.013 19.388-33.573 28.933-50.16 0.59734 0.3467 1.2227 0.7333 1.8213 1.08-8.0493 17.187-16.071 34.373-24.311 52.027 13.569 8.8267 14.223 8.6134 21.103-3.48 7.6133-13.413 15.472-26.707 23.221-40.027 0.68 0.3467 1.36 0.68 2.04 1.0267-7.6413 17.787-15.283 35.547-23.304 54.2 7.0427 2.6667 12.264 4.64 17.212 6.4934 9.2467-17.893 17.975-34.773 26.731-51.693 0.84266 0.3867 1.6587 0.76 2.5013 1.1467-7.0693 18.027-14.167 36.08-21.183 53.893 16.968 9.4934 18.192 9.08 24.583-7.12 1.848-4.7333 3.616-9.52 5.8187-14.093 3.2093-6.6 6.7973-13.027 10.224-19.52-2.7467 13.787-7.8307 26.347-12.1 39.16-4.732 14.133-2.2307 16.827 12.427 16.013 6.5253-16.453 12.916-32.547 19.307-48.627 0.84267 0.36 1.7133 0.7066 2.556 1.0666"/>
  <path d="m1012.7 5963.7c-1.088-0.08-2.176-0.1867-3.2626-0.2934 1.6573-16.533 3.316-33.093 4.976-49.653 1.6586 0.2133 3.344 0.4267 5.0306 0.64-2.2573 16.453-4.488 32.88-6.744 49.307zm-20.068-7.0667c-1.0333-0.16-2.04-0.3333-3.0733-0.52 2.3933-15.067 4.7587-30.133 7.1253-45.227 1.6853 0.3067 3.344 0.5734 5.0027 0.8534-3.0187 14.973-6.0373 29.933-9.0547 44.893zm-21.944-2.5067c2.42-15.52 4.84-31.053 7.5867-48.56 4.676 7.9334 0.48933 32.76-7.5867 48.56zm-14.712-14.107c-0.68-0.2-1.36-0.36-2.012-0.52 2.5027-11.56 5.004-23.147 7.5053-34.693 1.1693 0.2667 2.3653 0.56 3.5347 0.84-2.9907 11.44-6.0093 22.92-9.028 34.373zm76.792-22.573c1.876 0.1867 3.78 0.3734 5.656 0.5734-1.9853 17.507-3.9973 35.013-5.9826 52.533-1.0334-0.1067-2.0667-0.2133-3.1-0.3333 1.1426-17.587 2.284-35.187 3.4266-52.773zm-1.604 191.13c1.3054 0 2.5827-0.3466 4.432-0.6533 1.9854-66.507 23.304-131.41 12.455-199.59-39.049-6.7734-78.995-13.68-118.15-20.48-1.5227 2.5333-2.0933 3.0666-2.148 3.6666-0.24533 2.0134-0.408 4.0534-0.43467 6.0667-0.38133 47.613-13.569 90.307-47.641 125.11-2.2293 2.2667-4.188 5.6134-4.568 8.6534-1.6053 13.653-1.7147 27.493-4.0787 40.973-3.0733 17.627-3.7533 17.52 14.52 19.173 0.544 0.053 1.1693-0.5733 1.6853-0.84 4.46-15.467 8.892-30.893 13.324-46.307 1.0613 0.2666 2.1213 0.5466 3.2093 0.8133-3.372 15.72-6.716 31.44-10.169 47.507 15.988 4.9466 15.744 4.8666 19.279-9.4667 3.1267-12.613 6.88-25.093 10.333-37.6 0.73466 0.16 1.468 0.3467 2.2307 0.5067-2.6387 16.973-5.3027 33.92-8.132 52.133 6.5547 0.84 11.965 1.5467 16.669 2.1733 4.2973-17.72 8.24-33.907 12.209-50.107 0.98 0.2133 1.9587 0.4533 2.9373 0.7066-2.312 16.933-4.596 33.88-6.9067 50.76 17.321 3.1334 17.321 3.1334 20.312-12.187 2.312-11.773 4.6507-23.547 6.9613-35.32 0.98 0.1733 1.9573 0.3333 2.9373 0.4933-1.876 16.267-3.7533 32.52-5.7107 49.413 2.6107 0.4267 4.8947 0.7867 7.152 1.1867 8.2933 1.48 13.16 0.2 13.16-10.387 0.028-11.12 2.5027-22.24 4.1613-33.307 0.544-3.56 1.9307-6.9867 2.936-10.467 0.73467 0.2133 1.4693 0.4 2.204 0.6267-1.4693 18.027-2.9373 36.08-4.46 54.387h17.213c2.2014-17.52 4.3494-34.533 6.4987-51.56h1.576v53.947c5.1947 0 9.5987 0.053 14.005-0.027"/>
  <path d="m1094.2 6075.9c30.727-6.8267 61.753-12.547 92.236-20.24 18.681-4.7334 36.601-12.4 54.901-18.653 1.7413-0.6 3.644-0.6266 5.4933-0.8933 0.3267 0.8667 0.68 1.7067 1.0334 2.5867-6.2267 2.6933-12.237 6.1466-18.681 7.9333-43.399 12.24-86.907 24.093-130.39 36.053-1.3053 0.3867-2.7186 1.0934-3.9426 0.8534-3.5627-0.6534-7.0694-1.72-10.577-2.64 3.2894-1.72 6.4174-4.2134 9.9254-5zm-0.5174-160.88c2.6374 14.28 5.3027 28.533 7.94 42.773-1.032 0.2267-2.0933 0.4134-3.1533 0.6267-2.9093-14.213-5.8467-28.413-8.784-42.6 1.332-0.28 2.6653-0.52 3.9973-0.8zm19.633-3.72c2.664 15.933 5.3026 31.707 7.9133 47.453-12.4-24.613-15.391-44.213-7.9133-47.453zm16.832-6.4133c3.8333 16.587 7.668 33.147 11.501 49.733-1.0053 0.2667-2.0107 0.5467-3.044 0.7867-4.732-16.347-9.4627-32.72-14.223-49.053 1.9307-0.4933 3.8614-0.9866 5.7654-1.4666zm18.925-5.52c4.324 17.067 8.648 34.147 12.971 51.227-7.532-16.347-16.723-32.2-17.947-50.227 1.6587-0.3467 3.3173-0.68 4.976-1zm17.757-7.56c4.7587 17.533 9.136 33.747 14.085 52.12-14.004-21.88-20.448-44.56-14.085-52.12zm64.581 133.45c-42.365 15.827-85.248 29.613-131.45 34.613 44.515-11.72 87.995-23.16 131.45-34.613zm-145.21 72.72c40.463-4.16 79.293-14.827 117.66-27.573 21.672-7.24 43.236-14.747 67.519-23.04-12.156-15.36-22.243-30.267-34.535-43.067-11.801-12.293-20.992-25.613-26.948-41.413-11.067-29.373-22.243-58.707-33.501-88.467-14.004 4.6533-28.416 9.6267-42.909 14.227-17.456 5.5466-34.969 10.907-52.508 16.093-7.696 2.2667-11.584 5.9333-11.04 14.987 1.0066 16.267 1.1426 32.6 0.4346 48.867-0.788 19.227-1.196 38.72-4.8133 57.48-4.0507 21.027-7.396 40.6 3.128 61.16 4.568 8.92 7.668 11.747 17.512 10.747"/>
  <path d="m779.71 5797c0.244 7.1333-14.221 21.56-23.848 23.907 6.336-6.36 16.016-16.04 23.848-23.907zm-51.612 116.57c8.348-7.88 18.627-13.68 27.356-21.213 16.152-13.893 26.621-31.293 30.647-53.32-17.023 15.773-25.807 39.08-50.171 44.893 2.0947-1.9866 5.14-3.0133 6.988-5.08 14.956-16.893 29.884-33.773 44.243-51.12 2.2293-2.6933 1.496-7.8133 2.0933-11.507-15.091 12.48-29.395 24.36-43.725 36.227 1.768-5.2533 4.6773-9.3866 8.2947-12.707 8.2653-7.5334 17.539-14.08 25.261-22.107 11.856-12.32 10.305-23.987-4.08-35.653-6.824 7.5333-13.16 14.52-19.469 21.493-0.788-0.7733-1.5493-1.56-2.3107-2.32 6.5253-7.0933 13.052-14.16 20.448-22.213-13.379-9.0267-25.887-17.48-38.695-26.133-1.2773 2.8-2.2027 4.2934-2.6107 5.9067-9.272 35.747-32.685 56.96-67.927 65.853-26.512 6.6667-49.653 20.04-71.271 36.147-18.817 14-37.036 28.813-46.744 50.573 9.0013 8.4534 17.648 16.56 25.615 24.04 8.512-11.453 16.507-22.213 24.501-32.987 0.62533 0.4666 1.2773 0.92 1.9307 1.3866-7.3147 11.693-14.629 23.413-22.407 35.893 5.1387 3.7733 9.844 7.2666 13.215 9.7333 13.597-18.893 26.351-36.6 39.104-54.307 0.62534 0.4934 1.2773 0.9867 1.9027 1.44-11.775 18.96-23.548 37.88-35.867 57.733 4.6773 3.56 9.028 6.8533 12.971 9.84 14.384-20.547 28.063-40.08 41.741-59.6 0.70667 0.4933 1.4133 0.9733 2.12 1.4666-12.727 20.907-25.424 41.827-38.668 63.573 4.8133 3.16 8.892 5.8266 12.373 8.08 14.711-20.96 28.824-41.053 42.936-61.187 0.816 0.5467 1.632 1.0933 2.448 1.6133-12.971 21.533-25.941 43.093-39.375 65.36 5.112 3.4534 9.4627 6.4 14.113 9.52 7.5853-12.427 14.221-24.2 21.753-35.4 7.4773-11.147 15.799-21.733 23.767-32.52 0.70667 0.4534 1.4133 0.92 2.12 1.3867-13.813 23.387-27.6 46.747-41.577 70.427 5.3027 4.0533 9.164 7.0133 12.999 9.9466 11.883-21.093 22.216-41.84 34.86-61.093 7.832-11.947 18.6-22.16 29.096-32.067"/>
  <path d="m737.05 5049.9c1.4413-0.2533 2.9093-0.52 4.3787-0.7866 3.6973 20.987 7.396 41.987 11.095 62.973-0.98 0.2133-1.9853 0.44-2.9653 0.6267-8.1027-20.227-14.412-40.76-12.508-62.813zm19.741-9.44c1.5773 1.3067 4.3507 2.4267 4.596 3.92 3.372 22.027 6.4453 44.107 9.572 66.16-1.5227 0.1867-3.0453 0.3734-4.5413 0.5734-4.732-20.973-9.6533-41.907-13.923-62.987-0.46266-2.1733 2.7733-5.08 4.296-7.6667zm19.307-9.92c1.36 0.4 2.72 0.8134 4.052 1.2134 1.904 20.267 3.78 40.547 5.656 60.813-1.7947 0.2133-3.616 0.4267-5.412 0.6533-3.0453-18.147-6.308-36.253-8.864-54.467-0.32667-2.48 2.964-5.4667 4.568-8.2134zm15.147 0.4c0.24533-2.6 7.2333-4.56 12.372-7.5866v56.76c-0.95067 0.08-1.876 0.16-2.828 0.2666-6.9333-15.667-11.231-32.08-9.544-49.44zm27.165-8.7733c-2.2027 10-4.1333 18.813-6.1733 28.08-8.5387-15.773-6.716-25.307 6.1733-28.08zm-50.551 206.17c10.687 36.133 33.963 63.787 63.631 86.2 6.2267 4.6667 13.596 7.8267 22.515 12.827-12.264-17.893-22.841-33.333-33.447-48.813 1.0053-0.68 1.9853-1.36 2.964-2.04 10.197 14.2 20.449 28.307 30.537 42.56 4.704 6.64 10.387 10.253 18.98 7.92-14.901-23.253-29.559-46.173-44.215-69.067 0.84266-0.5733 1.6853-1.12 2.5293-1.6667 1.9573 2.9067 3.8333 5.88 5.8733 8.7067 13.568 18.68 27.301 37.227 40.733 55.96 5.1947 7.28 11.013 7.48 17.404 3.6667-8.5387-12.32-16.751-24.173-24.963-36.053 0.544-0.3866 1.088-0.76 1.6307-1.1733 5.4387 6.48 10.932 12.893 16.316 19.413 13.841 16.76 13.705 16.587 31.788 4.7067 6.6893-4.3733 7.3693-8.2133 0.816-13.053-9.3-6.8267-19.607-12.667-27.6-20.773-67.329-68.493-88.839-148.63-59.335-241.05 3.78-11.813 8.8373-23.227 13.951-36.493-46.283 3.2-86.445 22.813-128.84 37.147 1.904 12.933 2.5027 25.96 5.8187 38.253 13.788 51.067 27.873 102.08 42.911 152.83"/>
  <path d="m1875.9 5381c-17.52 1.68-21.973 7.6134-19.653 24.813 0.64 4.7066 1.3867 9.4133 2.1467 14.107 4.96 30.813 12.787 61.48 14.427 92.48 9.8533 185.61-49.173 348.43-167.85 489.97-56.24 67.08-124 121.71-195.83 171.29-45.587 31.453-95.52 54.387-147.04 74.173-6.2 2.3733-11.96 5.8667-17.933 8.84 0.3067 1.1867 0.6267 2.3733 0.9334 3.5467 5.2-0.6267 10.52-0.8267 15.613-1.9734 41.053-9.24 79.8-24.867 116.71-44.707 73.6-39.573 138.69-91.307 198.05-149.25 121.95-119.04 197.85-262.53 220.28-432.91 10.867-82.56 5.3067-164.08-12.52-245.04-0.5067-2.3067-4.9867-5.5733-7.3333-5.3467"/>
  <path d="m1686.2 5181.7c-27.333-17.107-54.267-34.933-82.227-50.973-25.147-14.413-51.773-25.56-81.627-26.267-6.6667-0.16-13.307-1.96-19.96-3-0.053-1.2266-0.093-2.4533-0.1467-3.68 31.507-13.733 63.627-3.4 94.947 1.4134 32.56 5.0133 61.24 20.573 83.013 44.027 10.307-14.293 19.68-27.293 29.507-40.92-3.36-1.36-6.68-3.04-10.187-4.0533-42.413-12.28-85-23.2-129.15-28.307-22.747-2.64-43.533-0.8933-64.373 7.9734-27.773 11.8-56.253 22-83.64 34.6-12.68 5.84-23.493 15.72-35.147 23.76 0.56 0.84 1.1333 1.68 1.6933 2.5066 3.7333-1.4533 7.44-2.9733 11.2-4.36 41.093-15.053 81.16-24.24 125.33-6.2666 50.12 20.4 94.12 46.253 123.03 93.4 1.32 2.16 3.4933 3.7866 5.32 5.72 12.773-14.227 24.987-27.84 37.427-41.72-0.7734-0.6-2.7467-2.44-5.0134-3.8534"/>
  <path d="m898.32 5583.4c29.113 13.4 54.573 31.693 75.088 56.427 21.92 26.427 42.139 54.013 55.685 86.173 2.3213-17.227 1.4773-33.973-4.5173-50.08-11.505-30.92-27.099-59.347-52.432-81.293-39.812-34.507-83.171-60.52-138.33-61.213-27.916-0.3467-52.78-11.32-74.621-28.853-3.616-2.8934-7.668-5.2667-10.128-6.9334-10.1 9.3734-18.677 18.573-28.572 26.027-5.2493 3.9467-5.676 6.9467-4.164 12.493 3.0227 11.12 5.728 22.36 7.676 33.693 1.088 6.3466 3.8773 10.413 10.056 10.48 14.155 0.1466 28.411 0.4933 42.461-0.8934 31.639-3.1333 62.717-15.267 95.105-5.28 1.1933 0.36 2.6613-0.16 3.8227-0.2533 1.88-3.64 3.64-7.04 5.4-10.453-0.84933 13.253 9.0747 16.093 17.467 19.96"/>
  <path d="m1062 5633.7c-2.8707-52.76-29.604-94.813-65.552-129.61-27.877-27-61.619-49.04-102.02-53.96-28.629-3.48-53.58-13.84-76.697-30.28-2.312-1.64-6.8307-1.76-9.7013-0.7733-13.625 4.68-27.035 10-41.791 15.573-3.5493 15.32-7.652 33.013-12.249 52.84 10.888 1.8 21.805 5.2267 32.659 5.04 17.935-0.3066 35.936-2.2133 53.708-4.8133 18.467-2.7067 39.181 1 53.319-16.253 0.10934-0.1334 0.628 0.067 1.704 0.2133 1.4013 8.9067 7.3747 13.267 16.3 14.653 2.4947 0.4 4.76 2.4934 7.0453 3.9467 9.1573 5.8 18.732 11.08 27.324 17.627 16.908 12.907 34.907 24.947 49.495 40.187 27.496 28.707 49.711 61.533 65.72 98.52 0.7654-4.4266 0.964-8.68 0.7347-12.907"/>
  <path d="m709.58 5636.8c7.5653 10.027 16.056 19.36 23.341 29.56 4.4453 6.2266 9.12 7.8933 16.321 6 20.665-5.44 41.305-11.133 62.233-15.347 11.815-2.3733 24.961-5.1733 36.152-2.36 39.84 9.9867 75.243 29.227 104.21 58.867 11.72 12 22.299 25.107 33.397 37.707 0.64266-0.04 1.2853-0.093 1.928-0.1333-1.3413-6.5067-1.2987-13.76-4.2933-19.387-7.592-14.267-14.751-29.387-25.272-41.373-38.769-44.133-86.071-71.667-146.99-71.413-28.044 0.12-54.416-6.92-76.825-25.133-2.2187-1.8-4.9333-3-6.3093-3.8133-7.0333 13.227-13.9 25.56-20.027 38.253-1.0053 2.0934 0.452 6.3467 2.1347 8.5734"/>
  <path d="m787.58 5758.4c19.944-7.84 39.701-16.133 58.605-23.92 3.708 1.96 7.66 4.96 12.108 6.24 42.099 12.067 82.209 27.813 114.25 59.267 1.8453 1.8133 4.3893 2.9067 6.608 4.3333 1.1613-0.6533 2.3227-1.3066 3.484-1.96-3.276-6.2933-5.5147-13.467-9.9907-18.747-39.975-47.147-88.653-77.12-152.75-76.6-23.319 0.2-45.845-4.1867-66.681-15.44-3.168-1.72-6.816-2.5467-11.347-4.1734v50.933c11.853 6.3866 23.959 13.173 36.343 19.4 2.6253 1.32 6.6987 1.7066 9.3707 0.6666"/>
  <path d="m1726.1 5326.7c11.027 36.68 20.907 73.693 21.427 111.72h48.893c-0.5333-3.8667-0.6133-6.52-1.28-9.0267-17.12-64.027-37.827-126.75-67.707-186.12-0.9466-1.8933-2.7066-4.36-4.4533-4.6933-11.373-2.1733-23.267 11.733-19.507 22.707 7.4934 21.827 15.987 43.333 22.627 65.413"/>
  <path d="m1350.5 5185.2c43.267-12.853 86.733-25.027 130.07-37.64 7.12-2.08 14.053-4.92 20.827-7.96 1.5066-0.68 2.6666-3.7733 2.6-5.6933-0.04-1.0667-2.88-2.6667-4.6-2.9067-3.3334-0.4533-6.7734-0.1733-10.16-0.067-35.027 1.16-67.973 11.907-101.36 21.2-29.067 8.0933-48.267 28.693-69.532 49.427 15.999 4.12 27.359 17.507 44.625 14.88 8.36-1.28 16.947-1.1066 25.32-2.36 33.84-5.1066 67.627-12.413 101.44 0.08 1.2533 0.4667 2.7867 0.9334 3.9867 0.6134 2.0933-0.56 5.1866-1.2134 5.8533-2.72 5.32-11.973 10.16-24.147 15.147-36.267-0.6667-0.9733-1.3334-1.96-2-2.9333-61.653 9.7333-123.29 19.467-187.3 29.573 6.488-11.133 15.976-14.52 25.083-17.227"/>
  <path d="m1047.7 5315.2c-15.192 0.8134-30.372 1.84-45.557 2.8134-0.672 0.84-1.344 1.68-2.0173 2.52 7.9547 6.4933 15.159 14.373 24.027 19.173 15.481 8.3733 31.877 15.12 48.084 22.093 39.881 17.16 79.808 34.213 119.91 50.84 4.232 1.76 10.3 1.8134 14.581 0.2 12.245-4.64 24.009-10.547 37.576-16.68-3.6587-2.36-6.1147-4.64-9.016-5.7066-37.239-13.693-74.488-27.373-111.85-40.733-24.193-8.6666-49.403-15.027-69.124-33.08-1.4533-1.3333-4.4067-1.56-6.6173-1.44"/>
  <path d="m1133.3 5297.3c-17.825 5.1066-35.559 10.507-55.549 16.493 4.6534 3.1333 7.3307 5.7867 10.548 6.96 11.123 4.0667 22.189 8.8267 33.715 11.147 50.185 10.067 100.52 19.413 150.82 28.92 5.5733 1.0533 12.276 3.7466 16.713 1.7733 13.675-6.08 26.504-14.067 39.661-21.32-0.2534-1.1333-0.508-2.2667-0.7614-3.4-3.264-1.3067-6.4213-3.2533-9.808-3.8133-27.773-4.4934-55.529-9.1734-83.408-12.947-32.253-4.36-64.937-6.5067-94.115-23.307-2.052-1.1866-5.4134-1.1866-7.812-0.5066"/>
  <path d="m982.56 5419.7c2.92 1.7067 6.316 2.68 9.0547 4.6 13.508 9.52 28.071 17.973 40.028 29.187 23.407 21.947 41.648 48.147 56.728 76.52 5.4426 10.253 11.635 20.093 18.728 32.253 3.9746-80.013-47.503-153.84-136.93-186.15-14.444 20.6-1.9693 35.187 12.395 43.587"/>
  <path d="m1194.8 5268.4c-11.484 4.7734-22.465 10.76-36.195 17.507 5.6973 3.04 9.2493 5.7733 13.251 6.88 9.1306 2.5333 18.432 5.76 27.752 6.08 54.632 1.8133 109.29 2.9067 163.94 4.0933 2.1867 0.053 5.24-0.7333 6.4533-2.2666 7.44-9.4 14.453-19.133 23.12-30.787-6.84 0-11.44-0.093-16.027 0-42.093 0.8667-84.185 2.2533-126.28 2.3733-13.743 0.04-27.472-3.44-41.255-4.8266-4.88-0.4934-10.432-0.8534-14.756 0.9466"/>
  <path d="m1277.6 5220.9c-14.936-0.8-42.191 16.56-49.801 33.213 10.989 0 21.159 1.3734 30.832-0.2266 45.855-7.6267 91.483 1.6266 137.22 1.1733 6.8667-0.08 13.707 3.4 20.667 4.7333 3.7867 0.72 9.2 2.0934 11.427 0.2267 10.84-9.0267 17.68-20.8 21.08-36.28-5.3067 0-9.2534-0.2533-13.16 0.04-42.28 3.28-84.52 7.7333-126.82-0.3733-10.265-1.9734-20.939-1.9334-31.441-2.5067"/>
  <path d="m895.17 5348.4c-12.051 0.9067-24.081 2.08-35.209 3.08-9.444 16.96-19.047 34.2-29.712 53.347 11.047 1.4266 22.589 4.0666 34.16 4.1866 24.713 0.28 49.444-1.1333 74.164-1.0266 7.9013 0.027 11.589-1.9734 12.748-10.04 0.64267-4.4667 3.3093-8.8267 5.7453-12.827 7.8733-12.933 7.192-15.16-7.4507-17.08-17.725-2.3333-34.588-6.5333-48.855-18.107-1.3893-1.1333-3.752-1.6666-5.5907-1.5333"/>
  <path d="m1837.3 5373.1c16.093-5.5466 31.947-11.013 48.133-16.587-0.3867-1.0934-0.7333-2.7734-1.5067-4.2267-22.16-41.6-44.2-83.28-66.933-124.56-1.3867-2.52-9.1733-3.92-12.6-2.5067-12.48 5.2-14.64 15.52-7.3067 30.693 18.08 37.373 33 75.8 40.213 117.19"/>
  <path d="m1790.3 4890.8c-18.56 8.1333-38.76 12.507-57.507 20.28-46.067 19.107-91.747 39.133-137.51 58.96-5.1067 2.2133-9.7733 5.4533-14.653 8.2133 0.6266 1.2533 1.24 2.52 1.8666 3.7867 18.333-5.8534 36.893-11.067 54.947-17.667 53.213-19.427 107.05-37.453 159.05-59.733 49.453-21.2 88.867-55.88 114.75-104.2 2.4533-4.5734 4.12-9.5734 6.1467-14.373-7.0934 6.9734-11.84 15.147-17.453 22.667-28.467 38.08-66.853 63.32-109.64 82.067"/>
  <path d="m1205.3 5558.6c14.732-48.653 29.191-96.413 43.583-143.95-2.668-1.1333-3.244-1.5467-3.848-1.6-1-0.08-2.1146-0.1867-3.0173 0.16-17.279 6.5467-36.233 11.08-39.655 33.96-0.54 3.6133-2.4 7.0267-3.572 10.56-9.1426 27.573-18.265 55.16-27.472 82.973 10.185 5.6134 19.329 10.68 28.513 15.667 1.4453 0.7867 3.0613 1.2667 5.468 2.2267"/>
  <path d="m824.79 5811c6.3787 2.12 12.623 5.2133 18.249 8.8933 8.7373 5.72 17.188 6.2134 26.916 2.6267 7.8053-2.8933 16.549-6.3733 24.369-5.4133 15.709 1.92 31.272 5.9866 46.532 10.427 23.009 6.6934 45.708 14.453 68.539 21.76 0.424-0.88 0.848-1.76 1.272-2.64-59.824-48.387-131.23-60.827-206.01-65.107 1.7667 13.853 6 24.747 20.135 29.453"/>
  <path d="m1714.5 5161.1c20.32 17.907 37.413 38.267 45.533 64.867 1 3.2666 3.2666 6.1466 5.1333 9.56 30.253-30.573 30.253-30.573 46.307-32.507-8.88-9.4267-15.64-18.08-23.853-25.04-21.173-17.92-42.933-35.16-64.653-52.413-1.8-1.4267-6.12-2.1734-7.6533-1.0534-13.667 9.9734-13.453 25.44-0.8134 36.587"/>
  <path d="m1335.8 5354.5c-1.0933-0.7333-2.1867-1.4666-3.2853-2.2133-9.8574 8.0267-19.811 15.92-29.471 24.173-1.4893 1.2667-2.276 4.12-2.284 6.2534-0.1387 34.053-0.099 68.12-0.099 102.43 11.173 2.04 23.269 4.2534 35.139 6.4134v-137.05"/>
  <path d="m1452.9 5381.6c-14.56-30.64-29-61.333-43.573-91.96-1.4134-2.9867-3.4267-5.6934-6.1067-10.067-5.8 8.8-10.453 16.653-15.88 23.907-6.0133 8.0533-7.1867 15.307-0.6933 23.96 4.4133 5.88 7.3466 12.987 10.413 19.773 9.6 21.293 18.96 42.693 28.613 64.507 7.1067-3.3467 13.587-6.2534 19.947-9.44 13.893-6.9467 13.787-6.9734 7.28-20.68"/>
  <path d="m1560.3 5060.7c7.3867 0 16.36 0.3866 25.307-0.093 14.853-0.8 29.827-1.1866 44.493-3.44 65.867-10.133 131.49-15.4 196.56 4.8667 0.76 0.24 1.7333-0.2533 2.8133-0.44-48.16-42.6-215.63-42.067-269.17-0.8933"/>
  <path d="m1447.7 5267.1c-1.1066 3.3334 1.4267 9.0134 4.0267 12.187 8.9867 10.987 19.12 21.027 28.12 32 12.8 15.64 25 31.787 37.173 47.373 8.92-7.7066 17.507-15.133 26.347-22.787-26.973-32.907-54.133-66.04-82.227-100.31-4.6533 10.573-9.9066 20.773-13.44 31.533"/>
  <path d="m1532.9 5238.7c3.2133 3 6.3333 6.1467 9.2533 9.44 14.147 15.96 28.213 31.987 42.64 48.36 9.9867-7.0933 18.733-13.307 27.667-19.653-28.653-30.36-56.827-60.2-85.08-90.133-14.373 22.827-13.027 34.693 5.52 51.987"/>
  <path d="m1161.3 5571.4c-14.855 21.813-29.105 44.027-43.389 66.213-4.8426 7.52-9.18 15.373-13.747 23.08 0.648 0.8 1.2973 1.6 1.9466 2.4 7.576-4.6133 16.628-7.84 22.463-14.093 20.965-22.427 40.892-45.84 61.003-69.067 1.144-1.32 1.3813-5.48 0.42-6.2266-5.1907-4.0134-10.541-9.0134-16.557-10.293-3.404-0.7333-9.5026 4.12-12.139 7.9867"/>
  <path d="m1259.5 5599.3c1.728 1.12 3.4547 2.24 5.1813 3.36 30.341-24.907 46.728-59.547 63.853-93.947-14.004-7.0133-25.572-7.3733-28.835-0.24-13.784 30.093-26.863 60.52-40.2 90.827"/>
  <path d="m1429.9 5433c-4.24 29.027-7.52 58.2-11.48 89.787 18.853-12 43-84.547 37.573-105.97-13.48 0.1334-24.64 6.16-26.093 16.187"/>
  <path d="m1544.1 5465.8c15.173-15.48 15.72-96.4 2.2133-111.11-17.6 9.1467-20.147 14.533-16.693 32.667 2.8667 14.973 5.0133 30.08 7.7333 45.08 1.9467 10.787 4.3334 21.507 6.7467 33.36"/>
  <path d="m1601.6 5327.6c9.6 22.387 19.707 44.56 29.68 66.787 0.4533 1 1.84 1.5733 2.8133 2.36 9.5734-13.12-2.44-73.44-20.28-102.31-18.493 10.893-20.107 14.72-12.213 33.16"/>
  <path d="m977.12 5315.7c-9.0387-3.44-18.525-5.6933-24.583-7.4533-10.704 9.5067-19.317 17.16-28.781 25.573 17.941 2.3334 35.513-0.2533 52.841-4.9733 2.5667-0.6933 6.8093-4.1333 6.5267-4.8667-1.196-3.1466-3.244-7.2266-6.004-8.28"/>
  <path d="m1717.7 5217.1c-5.5067-10.987-15.867-14.8-27.32-9.56-12.253 5.6134-22.333 25.44-17.667 36.12 15.013-8.8666 29.96-17.68 44.987-26.56"/>
  <path d="m1441.9 4934.6c0 9-7.32 16.307-16.32 16.307s-16.32-7.3066-16.32-16.307 7.32-16.32 16.32-16.32 16.32 7.32 16.32 16.32"/>
  <g transform="rotate(-8.2047 3989.1 38276)">
   <path d="m6099.6 5893.6c85.52-24.253 147.45-77.773 202.17-142.77-3.9466 7.7333-7.2266 15.907-11.92 23.16-48.493 74.68-114.01 127.35-198.57 157.12-41.96 14.773-83.76 29.12-128.12 33.813-16.133 1.7067-32.613 0.28-52.027 0.28 15.787-25.093 32.92-43.187 56.307-55.88-10.747 3.1467-21.493 6.2934-33.147 9.7067 1.1467-19 6.0134-33.12 24.027-42.96 43.107-23.533 84.947-49.413 127.52-73.947 23.413-13.493 47.333-26.12 70.96-39.227 13.973-7.7467 28.24-15.067 41.533-23.84 4.8267-3.2 7.88-9.76 10.587-15.347 6.5733-13.52 7.3733-13.733 19.08-5.16 1.8667 1.36 7.68 0.4533 9.2133-1.4133 4.4667-5.4534 7.1067-12.4 11.627-17.8 2.6133-3.1067 8.1333-6.7734 11.187-5.9334 8.1866 2.24 13.24-1.2266 17.573-6.6266 11.947-14.88 23.533-30.04 35.28-45.08 1.0667-1.36 2.32-2.5867 4.7067-5.2267 5.7333 18.373 5.2133 35.56 0.5333 52.013-10.307 36.253-31.16 66.133-58.307 92.12-46.773 44.76-98.2 82.68-157.07 110.09-0.6534 0.3066-1.1067 1-3.1467 2.9066"/>
   <path d="m6157.6 5617.4c-33.733 12.627-61.293 37.507-80.467 66.6 25.813-21.36 54.48-45.08 80.467-66.6zm-202.37 147.75c31.093-32.347 62.173-64.68 93.267-97.027 0.5866 0.6267 1.16 1.2533 1.7466 1.8933-10.04 16.827-20.08 33.653-28.08 47.067 27.48-27.387 56.84-57.733 87.413-86.8 22.68-21.56 47.8-40.013 79.133-47.72 3.04-0.7467 5.9333-2.12 11.2-4.04-28.28-1.9867-67.787 15.28-122.39 47.547-56.067 33.133-93.2 82.08-122.29 139.08zm-53.773 88.907c7.6933-15.333 25.373-25.36 24.667-45.667-8.2666 9.1866-16.333 18.16-24.413 27.133-1.16-0.56-2.3333-1.1333-3.5067-1.6933 3.1734-10.36 5.16-21.267 9.7067-30.987 43.693-93.453 106.29-169.27 200.56-216.19 37.587-18.707 75.44-35.453 117.77-39.333 6.3467-0.5867 12.72-1.0667 19.093-1.08 15.733-0.027 18.747 3.6267 14.933 19.173-6.88 28.067-23.387 50.947-40.413 73.507-54.253 71.853-119.16 132.27-196 179.17-25.867 15.8-53.787 28.267-81.133 41.52-12.133 5.88-24.64 3.44-41.267-5.56"/>
  </g>
 </g>
</svg>
